<svg width="56" height="65" viewBox="0 0 56 65" fill="none" xmlns="http://www.w3.org/2000/svg">
<path fill-rule="evenodd" clip-rule="evenodd" d="M40.5375 0V0.0548707C40.5407 1.04409 40.8333 15.3491 55.993 16.2417C55.993 29.5498 56 16.2417 56 27.2947C54.8614 27.3619 46.0215 26.729 40.5211 21.8702L40.504 43.3873C40.6398 53.1303 35.1628 62.6855 24.9088 64.6106C22.0361 65.1493 19.449 65.2103 15.1068 64.2706C-9.90882 56.8607 -1.59656 20.1198 23.5213 24.0519C23.5213 35.9132 23.5283 24.0488 23.5283 35.9133C13.1518 34.4016 9.68051 42.9498 12.4385 49.0699C14.9483 54.6419 25.2795 55.8506 28.8835 47.9894C29.2917 46.4507 29.4954 44.6964 29.4954 42.7273V0H40.5375Z" fill="white"/>
</svg>
