<svg width="67" height="66" viewBox="0 0 67 66" fill="none" xmlns="http://www.w3.org/2000/svg">
<path d="M33.5547 0C15.3304 0 0.554688 14.7757 0.554688 33C0.554688 51.2243 15.3304 66 33.5547 66C51.779 66 66.5547 51.2243 66.5547 33C66.5547 14.7757 51.7829 0 33.5547 0ZM48.6615 47.6496C48.2555 48.3275 47.5382 48.7019 46.8012 48.7019C46.4228 48.7019 46.0366 48.6034 45.6858 48.3905C32.6916 40.5751 17.2852 45.0957 17.1315 45.143C15.9886 45.4898 14.7747 44.8434 14.4279 43.6965C14.081 42.5496 14.7234 41.3436 15.8664 40.9928C16.5679 40.78 33.2354 35.8416 47.9205 44.6739C48.9452 45.2927 49.2763 46.6249 48.6615 47.6496ZM52.7603 38.5138C52.2874 39.3375 51.4243 39.7986 50.5375 39.7986C50.104 39.7986 49.6665 39.6883 49.2645 39.4557C32.9398 30.0677 16.4931 35.5342 16.3275 35.5894C14.9875 36.0466 13.5332 35.3372 13.0721 33.9971C12.6149 32.6571 13.3282 31.2028 14.6643 30.7417C15.425 30.4815 33.4956 24.479 51.8144 35.014C53.0402 35.7195 53.4619 37.2841 52.7564 38.5138H52.7603ZM54.593 29.7012C54.1004 29.7012 53.5959 29.5829 53.1308 29.3386C34.3114 19.454 14.9836 25.3737 14.7904 25.4328C13.1312 25.957 11.3576 25.0348 10.8334 23.3755C10.3093 21.7162 11.2315 19.9427 12.8908 19.4185C13.7815 19.1387 34.942 12.6632 56.0631 23.7539C57.6041 24.5618 58.1993 26.4694 57.3874 28.0104C56.8238 29.0824 55.7281 29.6972 54.593 29.6972V29.7012Z" fill="white"/>
</svg>
