<svg width="35" height="63" viewBox="0 0 35 63" fill="none" xmlns="http://www.w3.org/2000/svg">
<path d="M22.5265 0.117188L22.5021 13.8299L22.4777 27.5426L21.3541 24.3593V24.351L19.8965 54.878C21.3295 58.9266 22.095 61.0895 22.1032 61.0977C22.1114 61.1059 22.9256 61.1548 23.911 61.2039C26.8912 61.3508 30.5881 61.6691 33.3972 62.0201C34.0485 62.1017 34.6024 62.1425 34.6429 62.1099C34.6834 62.0772 34.6916 48.1197 34.6837 31.0849L34.6593 0.117188H22.5267H22.5265Z" fill="#D6D6D6"/>
<path d="M0.554688 0.125408V31.1011C0.554688 48.1386 0.570593 62.0932 0.594819 62.1176C0.619045 62.142 1.65243 62.0362 2.90214 61.8974C4.15209 61.7587 5.87456 61.5793 6.73176 61.5058C8.04582 61.3917 11.9875 61.1389 12.4363 61.1307C12.5726 61.1307 12.5804 60.4374 12.5966 48.0081L12.6206 34.8854L13.5739 37.6258C13.7181 38.05 13.7663 38.1803 13.9104 38.5963L15.3446 8.10161C15.0402 7.22901 15.2005 7.68562 14.8559 6.69071C13.6863 3.32237 12.6928 0.475893 12.6526 0.345613L12.5726 0.117188H0.554688V0.125408Z" fill="#D6D6D6"/>
<path d="M0.554688 0.125159L12.8404 34.9099V34.8937L13.8117 37.634C19.2077 52.8936 22.1057 61.0821 22.1219 61.0985C22.1301 61.1068 22.9464 61.1556 23.9342 61.2046C26.922 61.3514 30.6282 61.6695 33.4444 62.0202C34.0894 62.1017 34.6526 62.1425 34.6853 62.1099L22.5056 27.5616V27.5698L21.3791 24.389C20.2771 21.2817 19.5423 19.2019 15.1098 6.69076C13.918 3.32239 12.9057 0.475895 12.8648 0.345615L12.7833 0.117188H6.66898L0.554688 0.125159Z" fill="white"/>
</svg>
