<svg width="113" height="46" viewBox="0 0 113 46" fill="none" xmlns="http://www.w3.org/2000/svg">
<path d="M96.6563 38.4306L113 18.7314V12.0721H87.7912V18.7314H104.135L87.7912 38.4306V45.0899H113V38.4306H96.6563ZM27.8097 14.1497C24.9001 12.0666 21.4393 10.8201 17.558 10.8201C7.16991 10.8201 -1.0074 19.6992 0.100742 30.3825C0.930482 38.5673 7.57932 45.0899 15.7566 45.921C20.3257 46.3365 24.4853 45.0899 27.8097 42.728V45.2266H35.1518V11.9299H27.8097V14.1497ZM27.8097 28.4416C27.8097 34.8221 21.9906 39.8193 15.3418 38.4306C11.4605 37.5996 8.27805 34.5433 7.58478 30.5247C6.19824 23.8654 11.1876 18.0371 17.558 18.0371C23.2352 18.0371 27.8097 22.6133 27.8097 28.3049V28.4416ZM69.3677 12.3455H67.5663L77.1246 0H68.396L54.8199 18.1738C52.0468 21.7823 50.6658 25.6641 50.8022 29.5515C50.9387 34.1277 52.882 38.2939 56.0645 41.3447C59.2525 44.2589 63.4066 45.921 67.8392 45.921H68.396C77.9544 45.6422 85.2965 38.0151 85.16 28.5783C84.7452 19.978 77.9544 12.8977 69.3677 12.3455ZM68.2595 39.2617C65.6284 39.3983 63.2702 38.4306 61.4742 36.763C59.5363 34.9588 58.4282 32.3235 58.2863 29.546C58.1498 26.6319 59.116 23.9966 60.9174 22.0556C62.5824 20.2514 64.9351 19.1415 67.4298 19.1415H67.8447C70.1974 19.1415 72.5556 19.9725 74.2151 21.6401C76.153 23.4444 77.403 26.0797 77.403 28.8571C77.8179 34.4066 73.8002 39.125 68.2595 39.2617ZM35.2883 6.65934H39.9992V45.0899H47.3413V0H35.1518C35.2883 0 35.2883 6.65934 35.2883 6.65934Z" fill="white"/>
</svg>
