<svg width="344" height="25" viewBox="0 0 344 25" fill="none" xmlns="http://www.w3.org/2000/svg">
<path fill-rule="evenodd" clip-rule="evenodd" d="M4.45675 3.85003V10.8248H13.9678V13.9951H4.45675V24.1402H0.652344V0.679688H16.504V3.85003H4.45675Z" fill="white"/>
<path fill-rule="evenodd" clip-rule="evenodd" d="M37.749 0.679688C39.9683 0.679688 40.9194 0.996721 41.8705 1.63079C43.1386 2.89892 44.0897 4.48409 44.0897 12.4099C44.0897 20.3358 43.1386 21.921 41.8705 23.1891C40.9194 23.8232 40.2853 24.1402 37.749 24.1402H30.7743C28.555 24.1402 27.6039 23.8232 26.6528 23.1891C25.3847 21.921 24.4336 20.3358 24.4336 12.4099C24.4336 4.48409 25.3847 2.89892 26.6528 1.63079C27.6039 0.996721 28.238 0.679688 30.7743 0.679688H37.749ZM29.1891 20.6528C29.5061 20.9699 29.8232 20.9699 31.0913 20.9699H37.432C38.7001 20.9699 39.0172 20.9699 39.3342 20.6528C39.6512 20.3358 40.2853 19.3847 40.2853 12.4099C40.2853 5.75223 39.6512 4.48409 39.3342 4.16706C39.0172 3.85003 38.7001 3.85003 37.432 3.85003H31.0913C29.8232 3.85003 29.5061 3.85003 29.1891 4.16706C28.8721 4.48409 28.238 5.4352 28.238 12.4099C28.555 19.0677 28.8721 20.3358 29.1891 20.6528Z" fill="white"/>
<path fill-rule="evenodd" clip-rule="evenodd" d="M73.257 14.3121C73.257 20.3358 72.623 21.2869 71.3548 22.555C70.0867 23.5061 68.5015 23.8232 65.3312 23.8232H61.8438C58.6735 23.8232 57.0883 23.5061 55.8202 22.555C54.552 21.2869 53.918 20.0188 53.918 14.3121V0.679688H57.7224V15.2632C57.7224 19.3847 58.0394 20.0188 58.6735 20.3358C58.9905 20.6528 59.6246 20.9699 62.4779 20.9699H64.6971C67.2334 20.9699 67.8675 20.9699 68.5015 20.3358C69.1356 19.7017 69.1356 19.7017 69.1356 15.2632V0.679688H72.94V14.3121H73.257Z" fill="white"/>
<path fill-rule="evenodd" clip-rule="evenodd" d="M103.688 24.1369H99.5665C98.6154 24.1369 98.2984 23.8199 97.6643 23.1858L88.1533 5.74895H87.5193V24.1369H83.7148V0.676409H88.1533C89.1044 0.676409 89.4215 0.993443 90.0555 1.62751L99.2495 18.1133H99.8836V0.359375H103.688V24.1369Z" fill="white"/>
<path fill-rule="evenodd" clip-rule="evenodd" d="M125.246 0.679688C128.099 0.679688 130.001 0.996721 131.27 2.26486C132.855 3.53299 133.806 6.70333 133.806 12.4099C133.806 18.1166 133.172 20.9699 131.27 22.555C130.001 23.8232 128.416 24.1402 125.246 24.1402H114.467V0.679688H125.246ZM128.099 4.48409C127.465 3.85003 126.514 3.85003 125.246 3.85003H118.588V20.9699H125.246C126.831 20.9699 127.465 20.9699 128.099 20.3358C129.05 19.3847 129.367 17.7995 129.367 12.727C129.684 7.02037 129.05 5.4352 128.099 4.48409Z" fill="white"/>
<path fill-rule="evenodd" clip-rule="evenodd" d="M160.115 24.1402H143.312V0.679688H160.115V3.85003H147.117V10.1907H157.896V13.361H147.117V20.6528H160.115V24.1402Z" fill="white"/>
<path fill-rule="evenodd" clip-rule="evenodd" d="M183.265 14.9378C182.948 14.6207 181.997 14.6207 180.728 14.6207H173.754V24.4488H169.949V0.988281H183.265C184.85 0.988281 186.118 1.30532 186.752 1.93938C187.703 2.89048 188.337 4.15862 188.337 7.64599C188.337 11.7674 187.069 13.0356 184.216 13.3526C186.752 13.6696 187.703 14.3037 188.02 17.7911C188.02 20.9614 188.337 23.1807 188.337 24.4488H184.533C184.216 22.8636 184.216 20.6444 184.216 18.1081C183.899 15.8889 183.582 15.2548 183.265 14.9378ZM181.997 11.4504C182.948 11.4504 183.265 11.1334 183.582 11.1334C183.899 10.8163 184.216 10.1823 184.216 7.64599C184.216 5.10972 183.899 4.47565 183.582 4.15862C183.265 3.84159 182.948 3.84159 181.997 3.84159H173.754V11.4504H181.997Z" fill="white"/>
<path fill-rule="evenodd" clip-rule="evenodd" d="M214.962 23.1807C214.328 23.8147 213.059 24.1318 211.157 24.1318H202.914C201.012 24.1318 199.744 23.8147 199.11 23.1807C198.159 22.2296 197.842 20.9614 197.842 16.84H201.646C201.646 19.6933 201.963 20.3273 201.963 20.6444C202.28 20.9614 202.597 20.9614 203.548 20.9614H210.523C211.474 20.9614 211.791 20.9614 212.108 20.6444C212.425 20.3273 212.425 19.3762 212.425 17.474C212.425 15.8889 212.425 15.2548 212.108 14.9378C211.791 14.6207 211.474 14.6207 210.523 14.6207L202.914 13.9867C201.012 13.6696 200.061 13.3526 199.427 12.7185C198.476 11.7674 198.159 10.8163 198.159 7.64599C198.159 4.47565 198.476 3.20752 199.744 1.93938C200.378 1.30532 201.646 0.988281 203.548 0.988281H211.157C213.059 0.988281 214.328 1.30532 214.962 1.93938C215.913 2.89048 216.23 3.84159 216.23 8.28006H212.425C212.425 5.42676 212.108 4.79269 212.108 4.79269C211.791 4.47565 211.474 4.47565 210.523 4.47565H204.182C203.231 4.47565 202.914 4.47565 202.597 4.79269C202.28 5.10972 202.28 6.06082 202.28 7.96303C202.28 9.5482 202.28 10.1823 202.597 10.4993C202.914 10.8163 203.231 10.8163 204.182 10.8163L211.791 11.4504C213.376 11.4504 214.645 11.7674 215.279 12.7185C216.23 13.6696 216.547 14.6207 216.547 18.1081C216.547 20.6444 216.23 21.9125 214.962 23.1807Z" fill="white"/>
<path fill-rule="evenodd" clip-rule="evenodd" d="M243.197 3.85003V10.8248H252.708V13.9951H243.197V24.1402H239.393V0.679688H255.244V3.85003H243.197Z" fill="white"/>
<path fill-rule="evenodd" clip-rule="evenodd" d="M283.441 14.3121C283.441 20.3358 282.807 21.2869 281.538 22.555C280.27 23.5061 278.685 23.8232 275.515 23.8232H272.027C268.857 23.8232 267.272 23.5061 266.004 22.555C264.736 21.2869 264.102 20.0188 264.102 14.3121V0.679688H267.906V15.2632C267.906 19.3847 268.223 20.0188 268.857 20.3358C269.174 20.6528 269.808 20.9699 272.661 20.9699H274.881C277.417 20.9699 278.051 20.9699 278.685 20.3358C279.319 19.7017 279.319 19.7017 279.319 15.2632V0.679688H283.124V14.3121H283.441Z" fill="white"/>
<path fill-rule="evenodd" clip-rule="evenodd" d="M313.887 24.1369H309.766C308.815 24.1369 308.498 23.8199 307.864 23.1858L298.353 5.74895H297.718V24.1369H293.914V0.676409H298.353C299.304 0.676409 299.621 0.993443 300.255 1.62751L309.449 18.1133H310.083V0.359375H313.887V24.1369Z" fill="white"/>
<path fill-rule="evenodd" clip-rule="evenodd" d="M335.441 0.679688C338.295 0.679688 340.197 0.996721 341.465 2.26486C343.05 3.53299 344.001 6.70333 344.001 12.4099C344.001 18.1166 343.367 20.9699 341.465 22.555C340.197 23.8232 338.612 24.1402 335.441 24.1402H324.662V0.679688H335.441ZM338.295 4.48409C337.661 3.85003 336.709 3.85003 335.441 3.85003H328.784V20.9699H335.441C337.026 20.9699 337.661 20.9699 338.295 20.3358C339.246 19.3847 339.563 17.7995 339.563 12.727C339.563 7.02037 339.246 5.4352 338.295 4.48409Z" fill="white"/>
</svg>
