<svg width="190" height="53" viewBox="0 0 190 53" fill="none" xmlns="http://www.w3.org/2000/svg">
<path d="M58.012 35.3528H52.3545V18.6272C52.4143 18.3054 52.5715 18.0136 52.8035 17.7891H49.6604C49.8924 18.0136 50.0495 18.3054 50.1094 18.6272V35.3453C50.0346 35.6596 49.8849 35.9515 49.6604 36.1835H58.7903L59.2393 34.6868C58.9025 35.0086 58.476 35.2331 58.0195 35.3304V35.3528H58.012ZM61.634 19.2708C61.634 19.2708 61.7612 18.5599 62.3823 18.5599H68.9454V35.3453C68.9454 35.6671 68.4964 36.1835 68.4964 36.1835H71.6469C71.4149 35.959 71.2578 35.6671 71.1979 35.3453V18.5673H77.8208C78.4644 18.5673 78.5691 19.2783 78.5691 19.2783V17.7816H61.634V19.2708ZM87.6167 17.7741H84.4661C84.6981 17.9986 84.8553 18.2905 84.9151 18.6122V35.3304C84.8553 35.6522 84.6981 35.944 84.4661 36.1685H87.6167C87.3847 35.944 87.2275 35.6522 87.1677 35.3304V18.6272C87.25 18.3204 87.3922 18.036 87.5942 17.7891L87.6167 17.7741ZM114.767 18.6272C114.804 18.3279 114.909 18.036 115.089 17.7891H111.773C111.773 17.7891 112.29 18.2381 112.29 18.5374L105.989 32.756L99.6202 18.6048C99.508 18.3354 99.508 18.036 99.6202 17.7666H96.6268C97.0758 18.021 97.6595 18.6646 97.5922 19.1136L95.9234 35.2555C95.871 35.6447 95.6315 35.9814 95.2798 36.1535H97.4051C97.4051 36.1535 96.7615 35.8991 96.8289 35.3154L98.3031 20.9471L105.248 36.5128L112.582 20.1763L114.078 35.3528C114.033 35.6372 113.899 35.8991 113.689 36.1012H116.967C116.727 35.8692 116.555 35.5773 116.451 35.263L114.767 18.6272ZM131.036 35.3453H125.955V27.6972H130.909C131.275 27.7197 131.582 27.9816 131.657 28.3408V26.1556C131.657 26.1556 131.462 26.7992 130.909 26.7992H125.955V18.6272H130.909C131.275 18.6497 131.582 18.9116 131.657 19.2708V17.7741H123.156C123.388 17.9986 123.545 18.2905 123.605 18.6122V35.3304C123.545 35.6522 123.388 35.944 123.156 36.1685H131.777L132.226 34.6718C132.158 34.6419 131.642 35.3528 131.006 35.3528H131.036V35.3453ZM136.821 19.2708C136.821 19.2708 136.948 18.5599 137.569 18.5599H144.132V35.3453C144.132 35.6671 143.683 36.1835 143.683 36.1835H146.834C146.602 35.959 146.444 35.6671 146.385 35.3453V18.5673H152.933C153.576 18.5673 153.681 19.2783 153.681 19.2783V17.7816H136.723V19.2783H136.821V19.2708ZM166.755 35.3453H161.673V27.6972H166.627C166.994 27.7197 167.301 27.9816 167.376 28.3408V26.1556C167.376 26.1556 167.181 26.7992 166.627 26.7992H161.673V18.6272H166.627C166.994 18.6497 167.301 18.9116 167.376 19.2708V17.7741H158.919C159.129 18.0136 159.264 18.2979 159.309 18.6122V35.3304C159.264 35.6447 159.129 35.929 158.919 36.1685H167.54L167.989 34.6718C167.922 34.6045 167.413 35.3154 166.77 35.3154L166.755 35.3453ZM185.86 33.4819C185.86 33.4819 182.193 30.0096 180.711 27.3081C182.702 26.6196 184.079 24.7861 184.184 22.6758C184.184 19.6824 181.1 17.7891 177.883 17.7891H173.834C174.066 18.0136 174.223 18.3054 174.283 18.6272V35.3453C174.223 35.6671 174.066 35.959 173.834 36.1835H176.985C176.775 35.944 176.64 35.6596 176.595 35.3453V27.9067H178.092C181.692 32.8608 184.012 34.597 184.012 34.597C187.162 37.3659 189.998 36.1386 189.998 36.1386C188.689 36.0563 186.758 34.3874 185.86 33.4819ZM177.823 26.9863H176.603V18.6272H177.763C179.985 18.717 181.781 20.4607 181.946 22.6758C181.946 24.9882 180.135 26.889 177.823 26.9863ZM44.6989 36.1386L43.8607 35.3902L33.4437 12.1914L32.0293 14.5038L32.3511 15.08L23.6702 34.8888C23.3484 35.4426 22.8545 35.8767 22.2559 36.1086H25.0846C24.673 35.9365 24.471 35.4651 24.6431 35.0535C24.6581 35.0161 24.673 34.9786 24.6955 34.9487L28.295 26.8441H37.4923L41.0918 35.0086C41.1891 35.3678 41.1666 35.7569 41.0245 36.1012L44.6989 36.1386ZM28.7515 25.7814L32.8675 16.3896L37.0507 25.7814H28.7515Z" fill="white"/>
<path d="M27.0733 51.5545C13.2214 51.5769 1.9737 40.3666 1.95125 26.5072C1.92132 12.6553 13.1391 1.40758 26.991 1.38513C35.7841 1.37016 43.9411 5.95755 48.4911 13.4785H50.1C42.9533 0.764002 26.8488 -3.75603 14.1269 3.39071C1.41244 10.5449 -3.10759 26.6494 4.03914 39.3639C11.1859 52.0783 27.2904 56.5983 40.0123 49.4516C44.1581 47.1242 47.6006 43.7118 49.9728 39.5884H48.3639C43.8663 47.0419 35.7766 51.5844 27.0733 51.5545Z" fill="white"/>
</svg>
