<svg width="252" height="38" viewBox="0 0 252 38" fill="none" xmlns="http://www.w3.org/2000/svg">
<g clip-path="url(#clip0_1264_1264)">
<path d="M95.7005 17.177H95.7038V17.1736L95.7005 17.177ZM115.918 17.0706C115.619 17.0031 115.347 16.8835 115.102 16.713C114.673 16.4239 114.276 15.904 113.908 15.1543L111.136 9.58409C113.906 9.05589 115.423 7.53987 115.423 5.03497C115.423 4.16673 115.206 3.3744 114.769 2.65902C114.333 1.94262 113.763 1.43205 113.059 1.12533C112.156 0.767634 111.172 0.588804 109.992 0.588804L108.444 0.562783H95.9799C95.8273 0.562783 95.7038 0.700398 95.7038 0.870175C95.7038 1.03943 95.8267 1.17685 95.9788 1.17756L96.4376 1.17971C97.5547 1.17971 98.3049 1.39287 98.6871 1.8192C98.9316 2.09164 99.0551 2.62816 99.0551 3.42883V14.3145C99.0551 15.5581 98.8823 16.3462 98.5384 16.679C98.1939 17.0107 97.4933 17.177 96.4376 17.177H95.966C95.8212 17.177 95.7038 17.3078 95.7038 17.4691C95.7038 17.6304 95.8212 17.7611 95.966 17.7611H106.941C107.087 17.7611 107.205 17.6296 107.205 17.4674C107.205 17.3051 107.087 17.1736 106.941 17.1736H106.73C106.46 17.1736 106.05 17.166 105.713 17.0707C105.376 16.9754 105.192 16.8502 104.978 16.6621C104.764 16.4749 104.622 16.2108 104.554 15.8697C104.485 15.5297 104.45 15.0098 104.45 14.311V10.0386C104.45 9.81571 104.612 9.63508 104.813 9.63508H105.475C105.607 9.63508 105.729 9.71553 105.793 9.84491L109.581 17.5513C109.644 17.6807 109.766 17.7611 109.899 17.7611H116.695C116.842 17.7611 116.962 17.6283 116.962 17.4646C116.962 17.3066 116.85 17.1743 116.708 17.1687C116.414 17.157 116.15 17.1243 115.918 17.0706ZM99.6818 12.1826V11.0222H101.559C101.847 11.0222 102.08 11.282 102.08 11.6024C102.08 11.9229 101.847 12.1826 101.559 12.1826H99.6818ZM102.08 13.2294C102.08 13.5498 101.847 13.8096 101.559 13.8096H99.6818V12.6492H101.559C101.847 12.6492 102.08 12.9089 102.08 13.2294ZM99.6818 10.5556V9.39519H101.559C101.847 9.39519 102.08 9.65494 102.08 9.9754C102.08 10.2959 101.847 10.5556 101.559 10.5556H99.6818ZM99.6818 8.92865V7.76821H101.559C101.847 7.76821 102.08 8.02799 102.08 8.34842C102.08 8.66884 101.847 8.92862 101.559 8.92862L99.6818 8.92865ZM99.6818 7.30167V6.1412H101.559C101.847 6.1412 102.08 6.40098 102.08 6.72143C102.08 7.04189 101.847 7.30167 101.559 7.30167H99.6818ZM99.6818 5.67469V4.51422H101.559C101.847 4.51422 102.08 4.774 102.08 5.09445C102.08 5.41491 101.847 5.67469 101.559 5.67469H99.6818ZM99.6818 4.0477V3.42876C99.6818 3.23549 99.6729 3.05745 99.6594 2.88725H101.559C101.847 2.88725 102.08 3.14701 102.08 3.46747C102.08 3.7879 101.847 4.04767 101.559 4.04767L99.6818 4.0477ZM99.6818 14.3144V14.2761H101.567C101.85 14.2761 102.08 14.5302 102.082 14.845C102.082 14.8503 102.082 14.8556 102.082 14.8609C102.084 15.1783 101.853 15.4366 101.568 15.4366H99.6231C99.6607 15.1042 99.6818 14.7346 99.6818 14.3144ZM102.08 1.84046C102.08 2.16092 101.847 2.4207 101.559 2.4207H99.6026C99.5167 1.94427 99.3603 1.58226 99.1307 1.32653C99.1105 1.30396 99.0897 1.28187 99.0681 1.26023H101.559C101.847 1.26023 102.08 1.52 102.08 1.84046ZM99.0784 17.0636C99.2982 16.7894 99.4536 16.405 99.5525 15.9031H101.779C101.988 15.9031 102.176 16.0431 102.255 16.2585C102.257 16.2632 102.259 16.2679 102.26 16.2727C102.4 16.6495 102.15 17.0636 101.784 17.0636H99.0784ZM109.03 8.8859C108.844 8.92442 108.668 8.92853 108.664 8.92862H108.663C108.802 8.82005 108.932 8.70071 109.053 8.57069C109.269 8.33702 109.45 8.0666 109.603 7.76818H110.765C111.006 7.76818 111.084 8.13096 110.868 8.25219C110.368 8.53272 109.757 8.7427 109.03 8.8859ZM111.7 7.30164H109.806C109.935 6.94953 110.031 6.56413 110.086 6.14117H111.706C112.11 6.14117 112.364 6.63863 112.148 7.01845C112.146 7.02206 112.144 7.02571 112.142 7.02933C112.045 7.19748 111.879 7.30164 111.7 7.30164ZM112.075 5.67466H110.133C110.144 5.50053 110.15 5.32135 110.15 5.1368C110.15 4.92269 110.141 4.71534 110.125 4.51415H112.075C112.362 4.51415 112.592 4.77452 112.59 5.09338C112.59 5.09825 112.59 5.10312 112.59 5.108C112.587 5.42199 112.357 5.67466 112.075 5.67466ZM111.703 4.04767H110.071C110.007 3.62894 109.904 3.24192 109.762 2.88722H111.697C111.878 2.88722 112.047 2.9916 112.139 3.16519C112.141 3.16908 112.144 3.17294 112.146 3.17686C112.349 3.56201 112.104 4.04767 111.703 4.04767ZM110.524 2.42067H109.777C109.631 2.42067 109.5 2.33603 109.417 2.20335C109.223 1.89398 108.993 1.61695 108.723 1.37429C108.679 1.33561 108.635 1.29822 108.589 1.26211C109.386 1.31515 110.085 1.49045 110.648 1.76284C110.954 1.91067 110.857 2.42067 110.524 2.42067ZM104.45 8.64399V1.57971C104.45 1.35687 104.612 1.17623 104.813 1.17623H105.69C106.898 1.17623 107.778 1.4237 108.33 1.9176C109.125 2.63297 109.523 3.70607 109.523 5.1368C109.523 7.7436 108.315 9.04749 105.896 9.04749H104.813C104.612 9.04749 104.45 8.86681 104.45 8.64399ZM106.416 9.66006C106.882 9.62059 107.965 9.49697 108.513 9.43353C108.713 9.41033 108.904 9.52314 109.001 9.72015C109.003 9.72512 109.006 9.73011 109.008 9.73517C109.189 10.105 108.948 10.5556 108.57 10.5556H106.857L106.416 9.66006ZM107.086 11.0221H109.333C109.523 11.0221 109.698 11.1367 109.79 11.3214C109.982 11.7081 109.73 12.1826 109.333 12.1826H107.656L107.086 11.0221ZM107.886 12.6491H110.143C110.332 12.6491 110.507 12.7637 110.598 12.9484C110.791 13.3351 110.539 13.8095 110.143 13.8095H108.456L107.886 12.6491ZM108.685 14.2761H110.951C111.141 14.2761 111.316 14.3907 111.408 14.5754C111.6 14.9621 111.349 15.4366 110.951 15.4366H109.256L108.685 14.2761ZM110.055 17.0635L109.485 15.9031H111.804C111.969 15.9031 112.127 15.9886 112.221 16.1397C112.224 16.1442 112.227 16.1488 112.229 16.1533C112.47 16.538 112.234 17.0636 111.812 17.0636L110.055 17.0635ZM178.746 17.0706C178.446 17.003 178.175 16.8834 177.93 16.7129C177.501 16.4238 177.104 15.9039 176.736 15.1542L173.964 9.58403C176.734 9.05583 178.251 7.53978 178.251 5.03491C178.251 4.16667 178.034 3.37434 177.597 2.65895C177.161 1.94255 176.591 1.43198 175.887 1.12526C174.984 0.76756 174 0.588736 172.82 0.588736L171.273 0.56271H158.809C158.656 0.56271 158.532 0.700683 158.532 0.87096C158.531 1.04141 158.656 1.17963 158.809 1.17963H159.266C160.383 1.17963 161.133 1.39279 161.515 1.81913C161.76 2.09157 161.883 2.62809 161.883 3.42873V14.3144C161.883 15.558 161.71 16.3462 161.366 16.6789C161.022 17.0106 160.321 17.177 159.266 17.177H158.794C158.649 17.177 158.532 17.3077 158.532 17.469C158.532 17.6303 158.649 17.761 158.794 17.761H169.769C169.915 17.761 170.033 17.6295 170.033 17.4673C170.033 17.3051 169.915 17.1735 169.769 17.1735H169.682C169.682 17.1735 168.878 17.1659 168.541 17.0706C168.204 16.9753 168.02 16.8502 167.806 16.662C167.592 16.4748 167.45 16.2107 167.382 15.8696C167.312 15.5296 167.278 15.0097 167.278 14.311V10.0385C167.278 9.81565 167.44 9.63499 167.64 9.63499H168.303C168.435 9.63499 168.557 9.71544 168.621 9.84482L172.409 17.5512C172.472 17.6806 172.594 17.761 172.727 17.761H179.289C179.436 17.761 179.555 17.6283 179.555 17.4645C179.555 17.3065 179.443 17.1743 179.301 17.1686C179.007 17.1569 178.978 17.1242 178.746 17.0706ZM162.51 12.1826V11.0221H164.387C164.675 11.0221 164.908 11.2819 164.908 11.6023C164.908 11.9228 164.675 12.1826 164.387 12.1826H162.51ZM164.908 13.2293C164.908 13.5498 164.675 13.8095 164.387 13.8095H162.51V12.6491H164.387C164.675 12.6491 164.908 12.9089 164.908 13.2293ZM162.51 10.5556V9.3951H164.387C164.675 9.3951 164.908 9.65488 164.908 9.97534C164.908 10.2958 164.675 10.5556 164.387 10.5556H162.51ZM162.51 8.92859V7.76815H164.387C164.675 7.76815 164.908 8.0279 164.908 8.34836C164.908 8.66878 164.675 8.92856 164.387 8.92856L162.51 8.92859ZM162.51 7.30158V6.14111H164.387C164.675 6.14111 164.908 6.40089 164.908 6.72134C164.908 7.0418 164.675 7.30158 164.387 7.30158H162.51ZM162.51 5.67463V4.51415H164.387C164.675 4.51415 164.908 4.7739 164.908 5.09439C164.908 5.41485 164.675 5.67463 164.387 5.67463H162.51ZM162.51 4.04761V3.4287C162.51 3.23542 162.501 3.05738 162.487 2.88718H164.387C164.675 2.88718 164.908 3.14695 164.908 3.46738C164.908 3.78783 164.675 4.04758 164.387 4.04758L162.51 4.04761ZM162.51 14.3144V14.276H164.395C164.678 14.276 164.908 14.5302 164.91 14.845C164.91 14.8502 164.91 14.8555 164.91 14.8609C164.911 15.1782 164.681 15.4365 164.395 15.4365H162.451C162.489 15.1041 162.51 14.7345 162.51 14.3144ZM164.908 1.84039C164.908 2.16085 164.675 2.42062 164.387 2.42062H162.431C162.344 1.94419 162.188 1.58219 161.958 1.32646C161.938 1.30389 161.917 1.2818 161.896 1.26016H164.387C164.675 1.26016 164.908 1.51993 164.908 1.84039ZM161.906 17.0635C162.126 16.7893 162.282 16.405 162.381 15.903H164.607C164.816 15.903 165.004 16.043 165.083 16.2585C165.085 16.2631 165.086 16.2679 165.088 16.2726C165.228 16.6494 164.978 17.0635 164.612 17.0635L161.906 17.0635ZM171.858 8.88584C171.672 8.92433 171.496 8.92847 171.492 8.92856H171.491C171.63 8.81995 171.76 8.70065 171.881 8.57062C172.097 8.33696 172.278 8.06654 172.431 7.76812H173.593C173.834 7.76812 173.912 8.13087 173.696 8.25213C173.196 8.53265 172.585 8.74264 171.858 8.88584ZM174.528 7.30155H172.634C172.763 6.94946 172.859 6.56404 172.914 6.14111H174.534C174.938 6.14111 175.192 6.63854 174.976 7.01835C174.974 7.022 174.972 7.02562 174.97 7.02923C174.873 7.19741 174.707 7.30155 174.528 7.30155ZM174.903 5.67459H172.961C172.972 5.50047 172.978 5.32129 172.978 5.13674C172.978 4.92262 172.969 4.71528 172.953 4.51409H174.903C175.19 4.51409 175.42 4.77446 175.418 5.09332C175.418 5.09819 175.418 5.10303 175.417 5.10794C175.415 5.42193 175.185 5.67459 174.903 5.67459ZM174.531 4.04758H172.899C172.835 3.62885 172.732 3.24186 172.59 2.88715H174.525C174.706 2.88715 174.875 2.99153 174.967 3.16512C174.969 3.16899 174.971 3.17288 174.974 3.1768C175.177 3.56192 174.932 4.04758 174.531 4.04758ZM173.351 2.4206H172.372C172.155 2.02241 171.882 1.67237 171.551 1.37422C171.507 1.33553 171.463 1.29815 171.417 1.26204C172.214 1.31508 172.912 1.49038 173.476 1.76278C173.782 1.9106 173.685 2.4206 173.351 2.4206ZM167.278 8.64393V1.57964C167.278 1.35679 167.44 1.17616 167.641 1.17616H168.518C169.726 1.17616 170.606 1.42362 171.158 1.91753C171.953 2.6329 172.351 3.70598 172.351 5.13674C172.351 7.74351 171.143 9.04743 168.724 9.04743H167.64C167.44 9.04743 167.278 8.86675 167.278 8.64393ZM169.244 9.66C169.71 9.62053 170.793 9.49691 171.341 9.43347C171.541 9.41024 171.732 9.52305 171.829 9.72006C171.831 9.72506 171.834 9.73005 171.836 9.73508C172.017 10.105 171.776 10.5555 171.398 10.5555H169.684L169.244 9.66ZM169.914 11.022H172.161C172.351 11.022 172.526 11.1366 172.618 11.3213C172.81 11.708 172.559 12.1825 172.161 12.1825H170.484L169.914 11.022ZM170.713 12.649H172.97C173.16 12.649 173.335 12.7636 173.426 12.9483C173.619 13.335 173.367 13.8095 172.97 13.8095H171.284L170.713 12.649ZM171.513 14.276H173.779C173.969 14.276 174.144 14.3906 174.235 14.5753C174.428 14.962 174.176 15.4365 173.779 15.4365H172.084L171.513 14.276ZM172.883 17.0635L172.313 15.903H174.632C174.797 15.903 174.955 15.9885 175.049 16.1396C175.052 16.1441 175.054 16.1487 175.057 16.1532C175.298 16.538 175.061 17.0635 174.64 17.0635H172.883ZM156.771 17.1745C155.914 17.1745 155.367 16.9614 154.894 16.535C154.741 16.3988 154.588 16.2351 154.492 16.1264C154.182 15.7731 153.886 15.2491 153.493 14.4658C153.134 13.7479 147.396 2.25794 146.441 0.346627C146.359 0.180897 146.202 0.0781396 146.031 0.0781396C145.861 0.0781396 145.705 0.180374 145.622 0.345414L139.398 12.7283C138.617 14.261 137.89 15.385 137.216 16.1014C136.61 16.7453 135.93 17.0994 135.175 17.1638C135.034 17.1759 134.921 17.2996 134.921 17.4577V17.4679C134.921 17.6303 135.039 17.762 135.185 17.762H143.013C143.159 17.762 143.277 17.6303 143.277 17.4679C143.277 17.3079 143.163 17.1769 143.019 17.174C142.891 17.1714 142.737 17.1647 142.611 17.1485C142.248 17.102 141.908 17.025 141.51 16.7908C141.059 16.5258 140.621 16.1222 140.362 15.6023C140.101 15.0835 139.971 14.5251 139.971 13.9293C139.971 13.7274 139.997 13.5135 140.049 13.2871C140.09 13.1086 140.236 12.9831 140.401 12.9831H146.276C146.409 12.9831 146.531 13.064 146.594 13.1941L147.501 15.0533C147.685 15.4453 147.777 15.7604 147.777 15.9985C147.777 16.3562 147.631 16.6421 147.341 16.8553C147.05 17.0684 146.705 17.1745 146.307 17.1745H145.401C145.255 17.1745 145.137 17.306 145.137 17.4682C145.137 17.6305 145.255 17.762 145.401 17.762H156.948C157.094 17.762 157.212 17.6305 157.212 17.4682C157.212 17.306 157.094 17.1745 156.948 17.1745L156.771 17.1745ZM137.155 17.0635C137.349 16.9087 137.536 16.7348 137.718 16.5416C137.844 16.4083 137.97 16.2648 138.097 16.111C138.321 15.8383 138.729 15.8778 138.892 16.2004C138.895 16.2063 138.898 16.2123 138.901 16.2182C139.094 16.5951 138.863 17.0635 138.473 17.0635H137.155ZM148.45 9.69153C148.452 9.69542 148.454 9.69932 148.456 9.70321C148.647 10.0861 148.398 10.5555 148.005 10.5555H146.014L145.446 9.39504H147.999C148.186 9.39504 148.359 9.50907 148.45 9.69153ZM147.193 8.9285H145.218L144.65 7.76806H147.188C147.375 7.76806 147.548 7.88047 147.638 8.06305C147.64 8.06691 147.642 8.07077 147.644 8.07463C147.835 8.45751 147.587 8.9285 147.193 8.9285ZM146.383 7.30152H144.422L143.855 6.14105H146.377C146.565 6.14105 146.737 6.25348 146.828 6.43619C146.83 6.43999 146.832 6.44379 146.834 6.44759C147.025 6.83053 146.776 7.30152 146.383 7.30152ZM145.354 3.47403C145.357 3.47939 145.359 3.48475 145.362 3.49018C145.486 3.73969 145.325 4.04755 145.069 4.04755H144.479L144.767 3.47409C144.896 3.21802 145.227 3.21731 145.354 3.47403ZM144.244 4.51406H145.567C145.755 4.51406 145.928 4.62687 146.018 4.80961C146.02 4.81331 146.022 4.81705 146.024 4.82076C146.215 5.2037 145.966 5.67456 145.573 5.67456H143.661L144.244 4.51406ZM140.437 12.0979L143.097 6.61972C143.165 6.47903 143.346 6.47854 143.415 6.61886L146.105 12.097C146.172 12.2315 146.084 12.3955 145.947 12.3955H140.596C140.459 12.3955 140.371 12.2323 140.437 12.0979ZM146.243 11.022H148.811C148.998 11.022 149.171 11.1361 149.262 11.3184C149.264 11.3223 149.266 11.3263 149.268 11.3303C149.459 11.713 149.21 12.1825 148.817 12.1825H146.81L146.243 11.022ZM147.606 13.8094L147.038 12.649H149.624C149.811 12.649 149.984 12.7625 150.075 12.9442C150.077 12.9484 150.079 12.9525 150.082 12.9567C150.273 13.3394 150.024 13.8094 149.63 13.8094H147.606ZM148.054 14.7253L148.052 14.7205L147.834 14.276H150.445C150.63 14.276 150.8 14.3849 150.892 14.5626C150.894 14.5669 150.896 14.5713 150.898 14.5756C151.097 14.9581 150.849 15.4364 150.452 15.4364H148.322C148.265 15.2206 148.177 14.9865 148.056 14.7302L148.054 14.7253ZM148.066 17.0634C148.288 16.7658 148.403 16.4052 148.403 15.9984C148.403 15.9673 148.401 15.9351 148.399 15.9029H151.364C151.521 15.9029 151.669 15.9823 151.767 16.1186C151.77 16.1228 151.773 16.1271 151.776 16.1314C152.047 16.5054 151.805 17.0634 151.373 17.0634L148.066 17.0634ZM18.9222 11.4682C18.8312 11.4727 18.746 11.5226 18.6898 11.6024C17.2358 13.6666 15.8194 15.1486 14.4398 16.0494C13.2301 16.8001 11.9373 17.1744 10.5594 17.1744H9.10878C8.90859 17.1744 8.74631 16.9938 8.74631 16.771V4.01372C8.74631 2.65157 8.97156 1.75518 9.48049 1.43293C9.7892 1.23747 10.353 1.17714 11.3637 1.17714H11.8224C11.9746 1.17714 12.098 1.03981 12.098 0.870412C12.098 0.701014 11.9746 0.563687 11.8224 0.563687H0.275574C0.123391 0.563687 1.95822e-05 0.701014 1.95822e-05 0.870412C1.95822e-05 1.03981 0.123391 1.17714 0.275574 1.17714H0.734242C1.85143 1.17714 2.60154 1.39029 2.98362 1.81663C3.22834 2.08907 3.35168 2.62559 3.35168 3.42625V14.3119C3.35168 15.5555 3.17883 16.3436 2.83511 16.6764C2.49038 17.0081 1.78979 17.1745 0.734242 17.1745H0.263897C0.118152 17.1745 0 17.306 0 17.4682C0 17.6305 0.118152 17.762 0.263897 17.762H18.4037C18.5927 17.762 18.7507 17.6022 18.7688 17.3928L19.2486 11.8509C19.267 11.6394 19.1129 11.4588 18.9222 11.4682ZM5.86592 17.0644H3.37218C3.59299 16.7906 3.7491 16.4063 3.84823 15.904H5.86592C6.15384 15.904 6.3872 16.1637 6.3872 16.4842C6.3872 16.8047 6.15384 17.0644 5.86592 17.0644ZM5.86592 15.4374H3.91913C3.95715 15.1042 3.97819 14.7335 3.97819 14.3118V14.277H5.86595C6.15384 14.277 6.38723 14.5367 6.38723 14.8572C6.38723 15.1777 6.15384 15.4374 5.86592 15.4374ZM5.86592 13.8105H3.97819V12.65H5.86592C6.15384 12.65 6.3872 12.9098 6.3872 13.2302C6.3872 13.5507 6.15384 13.8105 5.86592 13.8105ZM5.86592 12.1834H3.97819V11.023H5.86592C6.15384 11.023 6.3872 11.2828 6.3872 11.6032C6.3872 11.9237 6.15384 12.1834 5.86592 12.1834ZM5.86592 10.5565H3.97819V9.39599H5.86592C6.15384 9.39599 6.3872 9.65577 6.3872 9.97623C6.3872 10.2967 6.15384 10.5565 5.86592 10.5565ZM5.86592 8.92945H3.97819V7.76901H5.86592C6.15381 7.76901 6.38718 8.02879 6.38718 8.34921C6.38718 8.66967 6.15381 8.92945 5.86592 8.92945ZM5.86592 7.3025H3.97819V6.14203H5.86592C6.15384 6.14203 6.3872 6.4018 6.3872 6.72226C6.3872 7.04272 6.15384 7.3025 5.86592 7.3025ZM5.86592 5.67548H3.97819V4.51501H5.86592C6.15384 4.51501 6.3872 4.77479 6.3872 5.09525C6.3872 5.41574 6.15384 5.67548 5.86592 5.67548ZM5.88622 4.0485H3.97819V3.42616C3.97819 3.23417 3.96944 3.05723 3.95612 2.88803H5.88689C6.18497 2.88803 6.41855 3.16736 6.40133 3.49864C6.4011 3.50259 6.40091 3.50651 6.40069 3.5105C6.38532 3.81281 6.15824 4.0485 5.88622 4.0485ZM6.146 2.42153H3.89982C3.81406 1.94331 3.65743 1.58029 3.42717 1.32394C3.40798 1.30256 3.38832 1.28158 3.36813 1.26106H6.14988C6.50149 1.26106 6.75579 1.64564 6.63834 2.01455C6.63699 2.01876 6.63563 2.023 6.6343 2.02726C6.56097 2.26056 6.36807 2.42153 6.146 2.42153ZM17.3919 16.5598C17.3578 16.8486 17.1367 17.0644 16.8751 17.0644H14.014C14.2613 16.9427 14.505 16.8074 14.7449 16.6585L14.7509 16.6548L14.7568 16.6509C15.0838 16.4375 15.4169 16.1856 15.753 15.9039H16.875C17.1899 15.9039 17.4329 16.2123 17.3919 16.5598ZM17.214 15.4374H16.2813C16.5122 15.2228 16.7438 14.9944 16.9752 14.7529C17.2161 14.5015 17.608 14.7303 17.565 15.0947C17.5418 15.2908 17.3916 15.4374 17.214 15.4374ZM197.603 9.14921C198.629 8.67194 199.363 8.11876 199.808 7.48759C200.252 6.8575 200.473 6.07451 200.473 5.13659C200.473 4.16649 200.206 3.31902 199.67 2.59428C199.135 1.87058 198.368 1.3382 197.374 0.997145C197.374 0.997145 196.627 0.771323 195.836 0.66697C195.044 0.562618 193.976 0.562501 193.976 0.562501H181.305C181.152 0.562501 181.029 0.699825 181.029 0.869244C181.029 1.03867 181.152 1.17599 181.305 1.17599H181.763C182.881 1.17599 183.631 1.38915 184.013 1.81549C184.257 2.0879 184.381 2.62445 184.381 3.42512V14.3108C184.381 15.5543 184.208 16.3425 183.864 16.6753C183.519 17.007 182.819 17.1733 181.763 17.1733H181.293C181.147 17.1733 181.029 17.3049 181.029 17.4671C181.029 17.6293 181.147 17.7608 181.293 17.7608H194.275C195.621 17.7608 196.663 17.6797 197.397 17.5185C198.132 17.3563 198.751 17.088 199.257 16.7127C200.343 15.912 200.887 14.8224 200.887 13.4425C200.887 11.3463 199.792 9.91555 197.603 9.14921ZM197.84 11.3079C197.843 11.3118 197.845 11.3157 197.847 11.3196C198.046 11.703 197.797 12.183 197.399 12.183H195.47C195.409 11.762 195.309 11.3744 195.169 11.0225H197.393C197.576 11.0225 197.748 11.1314 197.84 11.3079ZM194.488 9.39556C195.043 9.39556 195.651 9.4559 196.176 9.78448C196.521 10.0001 196.438 10.556 196.042 10.556H194.951C194.711 10.1203 194.4 9.75022 194.017 9.44809L194.005 9.43791L193.991 9.4285C193.974 9.41622 193.959 9.40733 193.942 9.39556H194.488ZM193.794 8.92902C193.878 8.87128 193.961 8.81067 194.042 8.7457C194.372 8.48748 194.644 8.16032 194.859 7.76855H195.944C196.329 7.76855 196.425 8.32687 196.083 8.52616C195.621 8.79577 195.013 8.92902 194.596 8.92902H193.794ZM197.164 7.30204H195.075C195.21 6.95535 195.309 6.56839 195.371 6.14157H197.169C197.546 6.14157 197.795 6.5774 197.637 6.95786C197.635 6.96224 197.633 6.9666 197.631 6.97092C197.546 7.17336 197.364 7.30204 197.164 7.30204ZM197.469 5.66556L195.424 5.67024C195.443 5.44212 195.453 5.20517 195.453 4.95731C195.453 4.80394 195.448 4.65561 195.44 4.50971L197.467 4.50508C197.749 4.50444 197.979 4.75634 197.983 5.07018C197.983 5.07505 197.983 5.07993 197.983 5.0848C197.986 5.40378 197.756 5.66491 197.469 5.66556ZM197.592 3.21474C197.593 3.21909 197.595 3.22347 197.597 3.22789C197.759 3.60859 197.51 4.04804 197.132 4.04804H195.402C195.353 3.62483 195.265 3.23861 195.143 2.88758H197.126C197.325 2.88758 197.506 3.01457 197.592 3.21474ZM194.084 1.26061C194.31 1.26399 194.678 1.27611 195.102 1.35917C195.457 1.42872 195.778 1.48717 196.134 1.67273C196.558 1.89396 196.356 2.42105 195.98 2.42105H194.949C194.724 1.96257 194.424 1.57976 194.049 1.27763C194.042 1.27192 194.035 1.26625 194.028 1.26061H194.084ZM189.775 1.57945C189.775 1.3566 189.938 1.17597 190.138 1.17597H190.717C191.497 1.17597 192.125 1.23628 192.599 1.35482C193.073 1.47441 193.433 1.63659 193.678 1.84041C194.443 2.45391 194.826 3.4937 194.826 4.95774C194.826 6.50808 194.443 7.5822 193.678 8.178C193.341 8.4504 192.966 8.64718 192.713 8.70681C192.461 8.76639 192.201 8.80313 191.887 8.81646C191.574 8.82973 191.015 8.84245 191.015 8.84245H190.138C189.938 8.84245 189.775 8.66179 189.775 8.43897V1.57945ZM186.912 17.0358L184.401 17.0629C184.622 16.7893 184.778 16.4053 184.877 15.9035H186.907C187.188 15.9035 187.416 16.157 187.416 16.4696C187.416 16.7802 187.191 17.0328 186.912 17.0358ZM186.895 15.437H184.948C184.986 15.1035 185.007 14.7324 185.007 14.3103V14.2765H186.895C187.182 14.2765 187.416 14.5363 187.416 14.8567C187.416 15.1772 187.182 15.437 186.895 15.437ZM186.895 13.81H185.007V12.6495H186.895C187.182 12.6495 187.416 12.9093 187.416 13.2297C187.416 13.5502 187.182 13.81 186.895 13.81ZM186.895 12.183H185.007V11.0225H186.895C187.182 11.0225 187.416 11.2823 187.416 11.6027C187.416 11.9232 187.182 12.183 186.895 12.183ZM186.895 10.556H185.007V9.39553H186.895C187.182 9.39553 187.416 9.65531 187.416 9.97577C187.416 10.2962 187.182 10.556 186.895 10.556ZM186.895 8.92902H185.007V7.76855H186.895C187.182 7.76855 187.416 8.02833 187.416 8.34878C187.416 8.66924 187.182 8.92902 186.895 8.92902ZM186.895 7.30201H185.007V6.14154H186.895C187.182 6.14154 187.416 6.40131 187.416 6.72177C187.416 7.04223 187.182 7.30201 186.895 7.30201ZM186.896 5.66433L185.007 5.66865V4.50818L186.893 4.50386C187.182 4.50318 187.416 4.76315 187.416 5.08409C187.416 5.40409 187.183 5.66366 186.896 5.66433ZM186.895 4.04804H185.007V3.42466C185.007 3.23303 184.998 3.0565 184.985 2.8876H186.895C187.182 2.8876 187.416 3.14738 187.416 3.46784C187.416 3.78829 187.182 4.04804 186.895 4.04804ZM186.895 2.42105H184.929C184.843 1.94229 184.687 1.57895 184.456 1.32244C184.437 1.30144 184.418 1.28082 184.398 1.26061H186.895C187.182 1.26061 187.416 1.52038 187.416 1.84084C187.416 2.16131 187.182 2.42105 186.895 2.42105ZM193.655 16.5858C193.288 16.8582 192.977 17.0194 192.725 17.0703C192.473 17.1223 192.243 17.1514 192.037 17.1597C191.83 17.1691 191.597 17.1733 191.336 17.1733H190.138C189.938 17.1733 189.775 16.9926 189.775 16.7698V9.85938C189.775 9.63652 189.938 9.4559 190.138 9.4559H190.717C190.717 9.4559 191.429 9.4552 191.933 9.48085C192.438 9.5065 192.666 9.55725 192.853 9.6034C193.093 9.66263 193.318 9.77924 193.655 10.0174C194.496 10.6818 194.918 11.7559 194.918 13.2376C194.918 14.9076 194.496 16.0233 193.655 16.5858ZM196.175 16.8338C195.684 16.9858 195.167 17.0629 194.275 17.0629H194.144C194.522 16.7692 194.823 16.381 195.048 15.9035H196.459C196.832 15.9035 196.947 16.4673 196.611 16.6458C196.458 16.7269 196.307 16.7928 196.175 16.8338ZM197.525 15.4369H195.234C195.351 15.0883 195.435 14.7016 195.485 14.2765H197.53C197.907 14.2765 198.156 14.7113 198 15.0934C197.999 15.0972 197.997 15.1009 197.996 15.1046C197.912 15.3083 197.727 15.4369 197.525 15.4369ZM197.765 13.8099H195.527C195.538 13.625 195.544 13.4348 195.544 13.2372C195.544 13.035 195.536 12.8394 195.522 12.6495H197.765C198.045 12.6495 198.274 12.8993 198.28 13.2113C198.28 13.216 198.28 13.2208 198.28 13.2255C198.287 13.5466 198.054 13.8099 197.765 13.8099ZM39.0215 2.57326C37.0628 0.870053 34.4611 0.0184514 31.2167 0.0184514C28.4771 0.0184514 26.2426 0.725515 24.5126 2.13862C22.309 3.96242 21.2076 6.28741 21.2076 9.11568C21.2076 11.8243 22.2324 14.0641 24.2837 15.8359C25.2935 16.7395 26.407 17.3821 27.6242 17.7658C28.8404 18.1484 30.2826 18.3408 31.9511 18.3408C34.8441 18.3408 37.1011 17.7189 38.7235 16.4754C39.78 15.657 40.5872 14.6266 41.1458 13.383C41.7043 12.1394 41.9838 10.8022 41.9838 9.37043C41.9838 6.55984 40.9962 4.29412 39.0215 2.57326ZM38.9166 8.94584H36.4328C36.4295 8.54825 36.4184 8.16099 36.3982 7.78537H38.9157C39.1879 7.78537 39.4139 8.01984 39.4319 8.32224C39.4322 8.32611 39.4325 8.32997 39.4327 8.33386C39.4521 8.66474 39.2142 8.94584 38.9166 8.94584ZM39.2173 6.61427C39.2178 6.6181 39.2187 6.62193 39.2195 6.62579C39.2898 6.98186 39.0409 7.31886 38.7133 7.31886H36.3686C36.3387 6.91842 36.2985 6.53189 36.2487 6.15839H38.7111C38.9553 6.15839 39.1644 6.34879 39.2173 6.61427ZM38.232 5.69188H36.1797C36.1146 5.28779 36.0371 4.90087 35.9468 4.53141H38.2273C38.4256 4.53141 38.6106 4.65528 38.6931 4.856C38.6947 4.8598 38.6964 4.86357 38.6978 4.86737C38.8556 5.25267 38.6125 5.69188 38.232 5.69188ZM37.2982 4.06487H35.8239C35.707 3.65471 35.5746 3.26674 35.4248 2.90443H37.2896C37.4392 2.90443 37.5818 2.97517 37.6793 3.10157C37.6823 3.10537 37.6851 3.1092 37.6881 3.113C37.9756 3.4873 37.7407 4.06487 37.2982 4.06487ZM34.2457 1.01436C34.2482 1.0169 34.2504 1.01998 34.2526 1.02255C34.8834 1.13842 35.4639 1.34641 35.9953 1.64538C36.3498 1.84487 36.2287 2.43794 35.8314 2.43794H35.2097C34.9253 1.87332 34.6071 1.39865 34.2526 1.02255C34.2501 1.02207 34.2476 1.02124 34.2449 1.02071L34.2457 1.01436ZM26.909 2.2928C26.9043 2.29856 26.8996 2.30432 26.895 2.31006C26.8292 2.39208 26.7342 2.43698 26.6354 2.43703L25.2246 2.43794C25.6303 2.14214 26.0554 1.88379 26.5092 1.66347C26.8584 1.49395 27.1641 1.97798 26.909 2.2928ZM24.6488 2.90446H25.5928C25.9821 2.90446 26.2248 3.3623 26.0481 3.74842C26.0463 3.75241 26.0445 3.75639 26.0426 3.76038C25.9563 3.94967 25.7779 4.0649 25.5872 4.0649H23.5313C23.8557 3.6586 24.2297 3.27275 24.6488 2.90446ZM23.1883 4.53147H25.0425C25.3749 4.53147 25.6054 4.88974 25.5081 5.24348C25.5035 5.26012 25.499 5.27673 25.4945 5.29343C25.4312 5.52768 25.2425 5.69191 25.0227 5.69191H22.5331C22.7153 5.28905 22.9336 4.90246 23.1883 4.53147ZM22.3413 6.15842H24.6762C24.9947 6.15842 25.2338 6.47505 25.1845 6.82526C25.1839 6.82915 25.1834 6.83307 25.1828 6.83697C25.144 7.11486 24.9271 7.31892 24.6745 7.31892H22.0092C22.0906 6.91811 22.2021 6.53186 22.3413 6.15842ZM21.9286 7.78543H24.5314C24.826 7.78543 25.0592 8.05848 25.0459 8.38605C25.0457 8.38994 25.0455 8.39383 25.0454 8.39766C25.0331 8.70405 24.8064 8.94587 24.5309 8.94587H21.8383C21.8451 8.54718 21.8745 8.16019 21.9286 7.78543ZM21.8412 9.41242H24.5237C24.8032 9.41242 25.0312 9.66046 25.038 9.97145C25.0381 9.97656 25.0382 9.98171 25.0384 9.98683C25.0454 10.3082 24.8129 10.5729 24.5241 10.5729H21.9499C21.889 10.1985 21.8532 9.8116 21.8412 9.41242ZM22.0405 11.0394H24.6309C24.8879 11.0394 25.1068 11.2506 25.141 11.5341C25.1414 11.538 25.1419 11.5419 25.1424 11.5458C25.1844 11.892 24.9463 12.1999 24.6324 12.1999H22.3993C22.2493 11.8272 22.1304 11.4403 22.0405 11.0394ZM22.6075 12.6664H24.925C25.1531 12.6664 25.3583 12.8319 25.4193 13.0765C25.4203 13.0805 25.4213 13.0844 25.4223 13.0883C25.515 13.4587 25.2736 13.8269 24.9281 13.8269H23.3102C23.0379 13.4563 22.8038 13.0698 22.6075 12.6664ZM24.6763 15.2924L24.6721 15.2886L24.6678 15.2849C24.3015 14.9685 23.9721 14.638 23.6777 14.2934H25.4786C25.671 14.2934 25.851 14.4105 25.9362 14.6025C25.938 14.6065 25.9398 14.6105 25.9415 14.6145C26.1137 15.0007 25.8715 15.4538 25.4842 15.4538H24.866C24.8027 15.4001 24.7386 15.3481 24.6763 15.2924ZM26.4558 16.5349C26.1144 16.355 25.7828 16.1498 25.4619 15.9203H26.5609C26.6401 15.9203 26.7159 15.9562 26.7685 16.0221C26.7721 16.0266 26.7757 16.0311 26.7794 16.0357C26.9844 16.2896 26.7329 16.681 26.4558 16.5349ZM31.7213 17.7274H31.6074C30.3211 17.7274 29.3195 17.012 28.5995 15.5802C27.8801 14.1494 27.5205 12.1228 27.5205 9.49838V9.17234C27.5205 6.56554 27.8801 4.47867 28.5995 2.9117C29.3345 1.37798 30.3211 0.604093 31.5615 0.604093C31.639 0.604093 31.7008 0.605233 31.767 0.605996C33.0076 0.605996 33.994 1.37232 34.7292 2.90603C35.4484 4.473 35.8081 6.55987 35.8081 9.16667V9.49838C35.8081 12.1228 35.4484 14.1494 34.7292 15.5802C34.0089 17.0119 33.0076 17.7274 31.7213 17.7274ZM34.1183 17.5117L34.1178 17.5062C34.5586 17.1068 34.9455 16.5779 35.2761 15.9208V15.9204H35.9416C36.4074 15.9204 36.5461 16.6159 36.1288 16.8464C35.5295 17.1774 34.8596 17.3993 34.1183 17.5117ZM37.5344 15.4538H35.4888C35.6395 15.0957 35.7735 14.7097 35.8881 14.2934H37.5427C37.9828 14.2934 38.2168 14.8628 37.9374 15.2414C37.9346 15.2451 37.9321 15.2487 37.9293 15.2524C37.8327 15.3826 37.6859 15.4538 37.5344 15.4538ZM38.3882 13.8269H36.0055C36.0908 13.4599 36.1637 13.0732 36.2238 12.6664H38.3923C38.7557 12.6664 39.0082 13.0753 38.8739 13.4511C38.8725 13.4549 38.8711 13.4587 38.8698 13.4625C38.7908 13.6821 38.6009 13.8269 38.3882 13.8269ZM38.7947 12.1999H36.2855C36.3298 11.828 36.3647 11.4415 36.3894 11.0394H38.7964C39.1146 11.0394 39.3605 11.3587 39.3067 11.7079C39.3062 11.7117 39.3056 11.7156 39.3051 11.7194C39.2622 11.9968 39.0475 12.1999 38.7947 12.1999ZM38.9348 10.5729H36.4129C36.427 10.2249 36.4348 9.86731 36.4348 9.49838V9.41242H38.9351C39.2245 9.41242 39.4574 9.67777 39.4496 9.99967C39.4494 10.0052 39.4494 10.0108 39.4491 10.0164C39.4416 10.3263 39.2131 10.5729 38.9348 10.5729ZM221.375 2.57331C219.416 0.870102 216.814 0.0184986 213.57 0.0184986C210.83 0.0184986 208.596 0.725561 206.866 2.13866C204.662 3.96245 203.561 6.28744 203.561 9.11571C203.561 11.8244 204.586 14.0641 206.637 15.8359C207.647 16.7395 208.76 17.3821 209.977 17.7658C211.193 18.1485 212.636 18.3408 214.304 18.3408C217.197 18.3408 219.454 17.719 221.077 16.4754C222.133 15.6571 222.94 14.6267 223.499 13.383C224.058 12.1395 224.337 10.8023 224.337 9.37046C224.337 6.55987 223.35 4.29418 221.375 2.57331ZM221.27 8.9459H218.786C218.783 8.54828 218.771 8.16105 218.752 7.78543H221.269C221.541 7.78543 221.767 8.0199 221.785 8.32231C221.785 8.32617 221.785 8.33 221.786 8.33389C221.805 8.6648 221.568 8.9459 221.27 8.9459ZM221.57 6.6143C221.571 6.61813 221.572 6.62199 221.573 6.62582C221.643 6.98192 221.394 7.31892 221.066 7.31892H218.722C218.692 6.91845 218.652 6.53192 218.602 6.15845H221.064C221.308 6.15845 221.517 6.34885 221.57 6.6143ZM220.585 5.69191H218.533C218.468 5.28785 218.39 4.90093 218.3 4.53147H220.58C220.779 4.53147 220.964 4.65534 221.046 4.85606C221.048 4.85983 221.049 4.86363 221.051 4.8674C221.209 5.2527 220.966 5.69191 220.585 5.69191ZM219.652 4.06493H218.177C218.06 3.65474 217.928 3.2668 217.778 2.90448H219.643C219.792 2.90448 219.935 2.97522 220.032 3.10163C220.035 3.1054 220.038 3.10923 220.041 3.11306C220.329 3.48736 220.094 4.06493 219.652 4.06493ZM216.599 1.0144C216.601 1.01695 216.603 1.02002 216.606 1.0226C217.236 1.13847 217.817 1.34646 218.348 1.64542C218.703 1.84492 218.582 2.43798 218.184 2.43798H217.563C217.278 1.87337 216.96 1.3987 216.606 1.0226C216.603 1.02212 216.601 1.02128 216.598 1.02076L216.599 1.0144ZM209.262 2.29285C209.257 2.29861 209.253 2.30437 209.248 2.31011C209.182 2.39212 209.087 2.43703 208.989 2.43708L207.578 2.43798C207.983 2.14219 208.408 1.88384 208.862 1.66352C209.212 1.494 209.517 1.97803 209.262 2.29285ZM207.002 2.90451H207.946C208.335 2.90451 208.578 3.36236 208.401 3.74846C208.399 3.75244 208.398 3.75645 208.396 3.76041C208.31 3.94973 208.131 4.06496 207.94 4.06496H205.884C206.209 3.65863 206.583 3.27281 207.002 2.90451ZM205.541 4.5315H207.396C207.728 4.5315 207.958 4.8898 207.861 5.24354C207.857 5.26015 207.852 5.27676 207.848 5.29346C207.784 5.52774 207.596 5.69194 207.376 5.69194H204.886C205.068 5.28908 205.287 4.90252 205.541 4.5315ZM204.694 6.15848H207.029C207.348 6.15848 207.587 6.47511 207.538 6.82532C207.537 6.82921 207.536 6.83311 207.536 6.837C207.497 7.11492 207.28 7.31895 207.028 7.31895H204.362C204.444 6.91815 204.555 6.53189 204.694 6.15848ZM204.282 7.78546H206.885C207.179 7.78546 207.412 8.05851 207.399 8.38611C207.399 8.38997 207.399 8.39386 207.399 8.39772C207.386 8.70411 207.16 8.9459 206.884 8.9459H204.191C204.198 8.54721 204.227 8.16022 204.282 7.78546ZM204.194 9.41245H206.877C207.156 9.41245 207.384 9.66049 207.391 9.97148C207.391 9.97659 207.391 9.98174 207.392 9.98689C207.398 10.3083 207.166 10.5729 206.877 10.5729H204.303C204.242 10.1986 204.206 9.81163 204.194 9.41245ZM204.394 11.0395H206.984C207.241 11.0395 207.46 11.2506 207.494 11.5342C207.495 11.538 207.495 11.5419 207.495 11.5458C207.538 11.892 207.299 12.1999 206.986 12.1999H204.752C204.602 11.8273 204.484 11.4404 204.394 11.0395ZM204.961 12.6664H207.278C207.506 12.6664 207.711 12.8319 207.772 13.0766C207.773 13.0805 207.774 13.0844 207.775 13.0884C207.868 13.4588 207.627 13.8269 207.281 13.8269H205.663C205.391 13.4564 205.157 13.0699 204.961 12.6664ZM207.029 15.2924L207.025 15.2886L207.021 15.2849C206.655 14.9685 206.325 14.6381 206.031 14.2934H207.832C208.024 14.2934 208.204 14.4105 208.289 14.6025C208.291 14.6065 208.293 14.6105 208.295 14.6145C208.467 15.0007 208.225 15.4539 207.837 15.4539H207.219C207.156 15.4002 207.092 15.3482 207.029 15.2924ZM208.809 16.535C208.467 16.355 208.136 16.1499 207.815 15.9204H208.914C208.993 15.9204 209.069 15.9562 209.122 16.0221C209.125 16.0266 209.129 16.0312 209.133 16.0357C209.338 16.2896 209.086 16.681 208.809 16.535ZM214.074 17.7274H213.96C212.674 17.7274 211.673 17.012 210.953 15.5802C210.233 14.1494 209.874 12.1229 209.874 9.49841V9.17237C209.874 6.5656 210.233 4.47873 210.953 2.91174C211.688 1.37803 212.674 0.604139 213.915 0.604139C213.992 0.604139 214.054 0.605282 214.12 0.606045C215.361 0.606045 216.347 1.37236 217.082 2.90608C217.802 4.47306 218.161 6.55993 218.161 9.1667V9.49841C218.161 12.1229 217.802 14.1494 217.082 15.5802C216.362 17.012 215.361 17.7274 214.074 17.7274ZM216.471 17.5117L216.471 17.5063C216.912 17.1068 217.299 16.5779 217.629 15.9208L217.629 15.9204H218.295C218.761 15.9204 218.899 16.6159 218.482 16.8464C217.883 17.1775 217.213 17.3993 216.471 17.5117ZM219.887 15.4539H217.842C217.993 15.0957 218.126 14.7098 218.241 14.2934H219.896C220.336 14.2934 220.57 14.8629 220.29 15.2415C220.288 15.2451 220.285 15.2488 220.282 15.2524C220.186 15.3826 220.039 15.4539 219.887 15.4539ZM220.741 13.8269H218.359C218.444 13.46 218.517 13.0733 218.577 12.6664H220.745C221.109 12.6664 221.362 13.0753 221.227 13.4512C221.226 13.455 221.224 13.4588 221.223 13.4625C221.144 13.6822 220.954 13.8269 220.741 13.8269ZM221.148 12.1999H218.639C218.683 11.8281 218.718 11.4416 218.742 11.0394H221.149C221.468 11.0394 221.714 11.3587 221.66 11.7079C221.66 11.7118 221.659 11.7156 221.658 11.7195C221.615 11.9968 221.401 12.1999 221.148 12.1999ZM221.288 10.5729H218.766C218.78 10.2249 218.788 9.86734 218.788 9.49841V9.41245H221.288C221.578 9.41245 221.81 9.67783 221.803 9.99973C221.803 10.0053 221.802 10.0109 221.802 10.0164C221.795 10.3263 221.566 10.5729 221.288 10.5729ZM239.103 0.869317C239.103 1.03779 239.223 1.17099 239.375 1.17983C241.458 1.30139 242.5 2.84913 242.5 5.82307V9.54725C242.5 9.72399 242.31 9.81528 242.195 9.69432L233.682 0.795653C233.536 0.643352 233.344 0.558569 233.144 0.558569H224.941C224.787 0.558569 224.663 0.697325 224.663 0.868481C224.663 1.03371 224.778 1.17035 224.926 1.17771C225.058 1.18421 225.219 1.19775 225.363 1.22561C225.725 1.29582 226.13 1.40303 226.528 1.68311C226.927 1.96319 227.31 2.25313 227.67 2.62881C227.794 2.75892 227.896 2.86636 227.976 2.95124C228.118 3.10322 228.198 3.31283 228.198 3.53247V12.5183C228.198 15.5073 227.053 17.0557 224.764 17.1633C224.619 17.1701 224.502 17.2982 224.502 17.4596C224.502 17.6238 224.622 17.7568 224.769 17.7568H232.017C232.165 17.7568 232.284 17.6236 232.284 17.4593C232.284 17.2979 232.168 17.1703 232.024 17.1622C229.932 17.0457 228.887 15.4977 228.887 12.5183V4.29746C228.887 4.12055 229.077 4.02932 229.193 4.1507L242.58 18.2098C242.647 18.2802 242.735 18.3194 242.827 18.3194C243.027 18.3194 243.189 18.1395 243.189 17.9175V5.82307C243.189 3.59167 243.855 2.15257 245.186 1.50476C245.455 1.3756 245.645 1.29394 245.954 1.24059C246.168 1.20359 246.427 1.18654 246.618 1.17871C246.767 1.17254 246.885 1.0355 246.885 0.868793C246.885 0.697444 246.76 0.558548 246.606 0.558548H239.382C239.227 0.558548 239.103 0.697708 239.103 0.869317ZM228.209 17.0594H227.158C227.418 16.8575 227.667 16.5973 227.883 16.2921C228.056 16.0468 228.402 16.0711 228.549 16.337C228.552 16.3415 228.554 16.346 228.557 16.3505C228.73 16.6598 228.536 17.0594 228.209 17.0594ZM228.471 2.438C228.31 2.27023 228.185 2.1398 228.166 2.12009C227.835 1.77368 227.491 1.4981 227.159 1.25604L230.515 1.27194C230.647 1.27256 230.773 1.32801 230.869 1.42734C231.219 1.78773 230.99 2.438 230.513 2.438H228.471ZM229.317 3.32243C229.317 3.32243 229.135 3.13279 228.917 2.90451H232.097C232.228 2.90451 232.355 2.95974 232.451 3.05917C232.799 3.41782 232.571 4.06496 232.097 4.06496H230.024L229.317 3.32243ZM230.468 4.5315H233.674C233.806 4.5315 233.932 4.58672 234.029 4.68617C234.376 5.04481 234.148 5.69197 233.674 5.69197H231.573L230.468 4.5315ZM232.017 6.15848H235.251C235.383 6.15848 235.509 6.21371 235.606 6.31312C235.953 6.67179 235.725 7.31895 235.251 7.31895H233.122L232.017 6.15848ZM233.567 7.78546H236.829C236.96 7.78546 237.087 7.84069 237.183 7.94013C237.531 8.29877 237.303 8.94594 236.829 8.94594H234.672L233.567 7.78546ZM235.116 9.41245H238.406C238.537 9.41245 238.664 9.4677 238.76 9.56711C239.108 9.92578 238.88 10.5729 238.406 10.5729H236.221L235.116 9.41245ZM236.665 11.0395H239.983C240.114 11.0395 240.241 11.0947 240.337 11.1941C240.685 11.5528 240.457 12.1999 239.983 12.1999H237.77L236.665 11.0395ZM241.965 16.6054L241.313 15.9204H242.209C242.407 15.9204 242.567 16.0991 242.566 16.3188C242.564 16.6656 242.192 16.8434 241.965 16.6054ZM242.05 15.4539H240.869L239.763 14.2934H242.05C242.339 14.2934 242.573 14.5548 242.572 14.8764C242.571 15.1957 242.337 15.4539 242.05 15.4539ZM241.51 13.8269H239.319L238.214 12.6664H241.51C241.671 12.6664 241.822 12.749 241.921 12.8902C242.188 13.2713 241.944 13.8269 241.51 13.8269ZM242.22 2.00284C242.018 1.70197 241.79 1.45588 241.544 1.25601H242.553C242.852 1.25601 243.029 1.61752 242.877 1.90415C242.87 1.91653 242.864 1.92893 242.857 1.94136C242.72 2.20792 242.386 2.24873 242.22 2.00284ZM93.4045 11.4667C93.3131 11.4712 93.2284 11.5211 93.1724 11.6018C92.1838 13.0297 91.0734 14.2556 89.8397 15.2815C89.1044 15.9116 88.704 16.1917 88.0255 16.5335C87.0751 17.0123 86.3967 17.1729 85.5922 17.1729H83.5903C83.3901 17.1729 83.2279 16.9923 83.2279 16.7695V9.85938C83.2279 9.63652 83.3901 9.4559 83.5903 9.4559H83.8246C84.6055 9.4559 85.3399 9.68568 86.0284 10.1453C86.1965 10.2472 86.4471 10.4334 86.7409 10.7051C87.1003 11.0372 87.4177 11.4068 87.7121 11.8471C87.8289 12.0217 87.9103 12.1701 87.9638 12.2783C88.023 12.3986 88.1366 12.4713 88.2598 12.4713C88.4479 12.4713 88.6002 12.3018 88.6002 12.0927V6.22134C88.6002 6.00354 88.4415 5.82699 88.2457 5.82699C88.1233 5.82699 88.01 5.89993 87.9452 6.01549C87.3789 7.02329 86.7822 7.7402 86.1544 8.16445C85.4895 8.61678 84.7122 8.84239 83.8246 8.84239H83.5903C83.3901 8.84239 83.2279 8.66173 83.2279 8.43891V1.57914C83.2279 1.35629 83.3901 1.17566 83.5903 1.17566H85.6379C86.4795 1.17566 87.1568 1.28275 87.6697 1.49486C88.1826 1.70801 88.7757 2.10835 89.4492 2.69582C90.1227 3.28436 90.7765 3.94048 91.4118 4.66419C92.008 5.34335 92.5333 6.0188 92.988 6.69064C93.0445 6.77436 93.1317 6.82281 93.2259 6.82281C93.4042 6.82281 93.5435 6.65181 93.5263 6.45433L93.0437 0.92591C93.0257 0.719564 92.87 0.562189 92.6837 0.562189H74.757C74.605 0.562189 74.4815 0.699516 74.4815 0.868937C74.4815 1.03836 74.605 1.17568 74.757 1.17568H75.2187C76.3361 1.17568 77.0863 1.38884 77.4681 1.81516C77.7129 2.08759 77.8362 2.62411 77.8362 3.42478V14.3104C77.8362 15.554 77.6634 16.3422 77.3197 16.6749C76.9749 17.0066 76.2743 17.173 75.2187 17.173H74.7454C74.5998 17.173 74.4815 17.3045 74.4815 17.4668C74.4815 17.629 74.5998 17.7605 74.7454 17.7605H92.8858C93.0744 17.7605 93.2323 17.601 93.2503 17.3919L93.7302 11.8486C93.7484 11.6375 93.5947 11.4572 93.4045 11.4667ZM86.5207 8.73565C86.6941 8.61843 86.8655 8.48454 87.035 8.33417C87.2363 8.15538 87.5329 8.30453 87.5329 8.59128C87.5329 8.77726 87.3975 8.92804 87.2302 8.92804H86.2048C86.3114 8.86641 86.4183 8.80534 86.5207 8.73565ZM87.5478 9.7577C87.5478 10.0582 87.2388 10.227 87.0236 10.0455C86.7689 9.83091 86.5351 9.65975 86.3751 9.56157C86.2854 9.50202 86.1943 9.44821 86.1031 9.39455H87.2216C87.4019 9.39455 87.5478 9.55715 87.5478 9.7577ZM91.3182 3.56507C91.0775 3.31575 90.8443 3.09271 90.6325 2.8866H91.5508C91.7233 2.8866 91.8692 3.02934 91.8917 3.21979C91.8922 3.22534 91.8931 3.23092 91.8936 3.23647C91.9357 3.59198 91.5541 3.80922 91.3182 3.56507ZM91.7189 1.75661C91.7194 1.76149 91.72 1.76639 91.7205 1.77135C91.761 2.1143 91.5214 2.42008 91.2107 2.42008H90.1374C90.0368 2.32851 89.9366 2.23506 89.8358 2.14678C89.4204 1.78458 89.0355 1.49036 88.6744 1.25961H91.2088C91.4671 1.25961 91.6851 1.47167 91.7189 1.75661ZM80.3467 17.063H77.8569C78.0776 16.7891 78.2338 16.4048 78.333 15.9025H80.347C80.6347 15.9025 80.8682 16.1622 80.8682 16.4827C80.8682 16.8032 80.6347 17.063 80.3467 17.063ZM80.3467 15.4359H78.4036C78.4418 15.1027 78.4628 14.732 78.4628 14.3103V14.2755H80.3467C80.6347 14.2755 80.8682 14.5352 80.8682 14.8557C80.8682 15.1762 80.6347 15.4359 80.3467 15.4359ZM80.3467 13.809H78.4628V12.6485H80.3467C80.6347 12.6485 80.8682 12.9083 80.8682 13.2287C80.8682 13.5492 80.6347 13.809 80.3467 13.809ZM80.3467 12.1819H78.4628V11.0215H80.3467C80.6347 11.0215 80.8682 11.2812 80.8682 11.6017C80.8682 11.9222 80.6347 12.1819 80.3467 12.1819ZM80.3467 10.555H78.4628V9.39449H80.3467C80.6347 9.39449 80.8682 9.65427 80.8682 9.97472C80.8682 10.2952 80.6347 10.555 80.3467 10.555ZM80.3467 8.92798H78.4628V7.76751H80.3467C80.6347 7.76751 80.8682 8.02726 80.8682 8.34774C80.8682 8.6682 80.6347 8.92798 80.3467 8.92798ZM80.3467 7.30096H78.4628V6.14049H80.3467C80.6347 6.14049 80.8682 6.40027 80.8682 6.72073C80.8682 7.04119 80.6347 7.30096 80.3467 7.30096ZM80.3467 5.67398H78.4628V4.51351H80.3467C80.6347 4.51351 80.8682 4.77329 80.8682 5.09375C80.8682 5.4142 80.6347 5.67398 80.3467 5.67398ZM80.3467 4.04697H78.4628V3.4246C78.4628 3.2326 78.454 3.05574 78.4407 2.88651H80.3467C80.6347 2.88651 80.8682 3.14628 80.8682 3.46673C80.8682 3.78719 80.6347 4.04697 80.3467 4.04697ZM80.3467 2.41998H78.3845C78.2986 1.94177 78.1422 1.57873 77.9118 1.32241C77.8926 1.30103 77.873 1.28006 77.8528 1.25953H80.3467C80.6347 1.25953 80.8682 1.51931 80.8682 1.83977C80.8682 2.16023 80.6347 2.41998 80.3467 2.41998ZM91.867 16.5583C91.833 16.847 91.612 17.0628 91.3503 17.0628H88.4902C88.737 16.9414 88.9341 16.8389 89.2966 16.6071C89.5503 16.4448 89.8699 16.201 90.2204 15.9024H91.3503C91.6651 15.9024 91.9083 16.2108 91.867 16.5583ZM91.6873 15.4358H90.7435C90.9742 15.2217 91.2107 14.9911 91.445 14.7498C91.6901 14.4975 92.0841 14.7225 92.0404 15.0909C92.0171 15.2883 91.8659 15.4358 91.6873 15.4358ZM135.53 11.9633C135.406 11.8906 135.254 11.9476 135.19 12.0869C134.425 13.7703 133.437 15.0908 132.228 16.0472C130.957 17.0527 129.588 17.5549 128.118 17.5549C126.664 17.5549 125.639 16.7377 125.042 15.1021C124.889 14.6768 124.756 14.2297 124.641 13.7607C124.526 13.2918 124.437 12.8363 124.376 12.3934C124.239 11.4222 124.17 10.3575 124.17 9.19913C124.17 7.8193 124.254 6.62251 124.422 5.60868C124.59 4.59592 124.843 3.71416 125.179 2.96345C125.853 1.49941 126.779 0.766344 127.958 0.766344C128.416 0.766344 128.849 0.82977 129.254 0.957671C129.66 1.08554 130.046 1.24361 130.414 1.43077C131.24 1.90803 131.952 2.52983 132.549 3.29616C133.009 3.85869 133.49 4.60839 133.995 5.54524C134.225 5.98819 134.435 6.43116 134.626 6.87411C134.746 7.1497 134.837 7.35931 134.899 7.50285C134.947 7.61293 135.058 7.67039 135.165 7.64079C135.272 7.61094 135.346 7.50086 135.341 7.37767L135.065 0.730706C135.057 0.550476 134.924 0.408626 134.762 0.408626C134.683 0.408626 134.607 0.445029 134.551 0.506384C133.857 1.25858 133.129 1.63559 132.366 1.63559C132.168 1.63271 131.862 1.60366 131.607 1.49467C131.358 1.38817 130.873 1.12402 130.873 1.12402C130.077 0.732012 129.419 0.459573 128.899 0.306724C128.225 0.101876 127.552 0 126.879 0C124.276 0 122.149 0.85158 120.497 2.55479C118.843 4.259 118.017 6.43116 118.017 9.07118C118.017 11.7289 118.897 13.9354 120.657 15.6895C122.417 17.4447 124.598 18.3223 127.2 18.3223C129.296 18.3223 131.08 17.7338 132.549 16.5588C132.87 16.303 133.18 16.0181 133.478 15.703C133.777 15.388 134.212 14.86 134.4 14.5861C134.655 14.2156 134.949 13.6998 135.151 13.3292C135.344 12.9751 135.515 12.6194 135.64 12.3285C135.698 12.1935 135.649 12.0331 135.53 11.9633ZM133.963 2.61809C133.991 3.1145 133.44 3.36469 133.145 2.99138C133.103 2.93886 133.061 2.88622 133.018 2.83292C132.88 2.6568 132.736 2.48724 132.587 2.32458C132.846 2.30461 133.1 2.24947 133.351 2.15945C133.642 2.05469 133.944 2.27789 133.963 2.61809ZM123.671 2.2243C123.664 2.23197 123.658 2.23966 123.653 2.24737C123.569 2.3553 123.448 2.42053 123.321 2.42053H121.639C122.11 2.04114 122.619 1.72299 123.164 1.4676C123.588 1.26892 123.972 1.83744 123.671 2.2243ZM120.922 3.06657C120.983 3.00384 121.048 2.94729 121.11 2.88706H122.302C122.689 2.88706 122.926 3.34615 122.744 3.72596C122.742 3.73004 122.74 3.73411 122.738 3.73819C122.648 3.92583 122.477 4.04752 122.286 4.04752H120.108C120.35 3.70525 120.62 3.37814 120.922 3.06657ZM119.806 4.51406H121.698C122.043 4.51406 122.291 4.88603 122.19 5.25405C122.189 5.25886 122.188 5.26361 122.187 5.26836C122.121 5.50994 121.921 5.6745 121.694 5.6745H119.235C119.393 5.26953 119.583 4.88334 119.806 4.51406ZM119.069 6.14105H121.343C121.667 6.14105 121.911 6.46944 121.849 6.82314C121.849 6.82695 121.848 6.83078 121.847 6.83458C121.8 7.10551 121.589 7.30152 121.341 7.30152H118.788C118.856 6.89951 118.95 6.51295 119.069 6.14105ZM118.72 7.76803H121.156C121.452 7.76803 121.689 8.04334 121.671 8.37195C121.671 8.37584 121.671 8.37974 121.671 8.3836C121.654 8.68836 121.43 8.9285 121.156 8.9285H118.647C118.652 8.52892 118.675 8.14165 118.72 7.76803ZM118.651 9.39504H121.154C121.427 9.39504 121.648 9.63459 121.663 9.93816C121.663 9.94203 121.664 9.94589 121.664 9.94978C121.68 10.2777 121.45 10.5555 121.155 10.5555H118.75C118.696 10.1811 118.662 9.7945 118.651 9.39504ZM118.831 11.022H121.329C121.577 11.022 121.788 11.2172 121.835 11.488C121.836 11.4918 121.837 11.4956 121.837 11.4994C121.9 11.8531 121.655 12.1825 121.331 12.1825H119.153C119.019 11.8099 118.912 11.4232 118.831 11.022ZM119.337 12.649H121.721C121.941 12.649 122.136 12.8038 122.208 13.035C122.209 13.0397 122.211 13.0445 122.212 13.0493C122.328 13.4213 122.079 13.8095 121.725 13.8095H119.962C119.72 13.4393 119.512 13.0525 119.337 12.649ZM121.075 15.1699C120.788 14.8837 120.528 14.5854 120.292 14.276H122.352C122.538 14.276 122.706 14.393 122.794 14.5753C122.8 14.5868 122.805 14.5983 122.811 14.6097C122.993 14.9824 122.757 15.4365 122.376 15.4365H121.359C121.264 15.3492 121.168 15.2623 121.075 15.1699ZM121.911 15.903H123.353C123.473 15.903 123.585 15.9678 123.656 16.0751C123.661 16.0814 123.665 16.0876 123.669 16.0939C123.898 16.4358 123.566 16.9029 123.217 16.7268C122.759 16.4961 122.324 16.2213 121.911 15.903ZM65.1426 0.872817V0.907458C65.1426 1.06162 65.245 1.18737 65.3813 1.21459C66.0838 1.35477 66.6626 1.7129 67.1165 2.28749C67.6218 2.92698 67.8741 3.68913 67.8741 4.57505C67.8741 5.18853 67.7135 5.89558 67.392 6.69624L65.7762 10.6084C65.6873 10.8236 65.4142 10.8287 65.3187 10.617L61.8591 2.93943C61.676 2.53079 61.5835 2.2074 61.5835 1.96827C61.5835 1.66152 61.6874 1.45355 61.8937 1.34229C62.1003 1.23209 62.4869 1.17592 63.0529 1.17592H63.2827C63.435 1.17592 63.5583 1.03859 63.5583 0.869173C63.5583 0.699752 63.435 0.562428 63.2827 0.562428H53.4066C53.2443 0.562428 53.113 0.708703 53.113 0.889172C53.113 1.05309 53.2221 1.19154 53.3681 1.21292C53.5074 1.2333 53.6458 1.25527 53.7937 1.28704C54.031 1.33801 54.1806 1.38553 54.3525 1.45772C54.6001 1.56174 54.8759 1.76473 55.1719 2.08136C55.5181 2.45167 55.7945 2.89339 56.0182 3.36628C56.1578 3.66087 56.343 4.05996 56.5563 4.57502L54.067 10.6095C53.9781 10.8245 53.7056 10.8302 53.6098 10.6189L50.1283 2.93941C50.1283 2.93941 49.9863 2.6214 49.9154 2.41065C49.8556 2.23323 49.8423 2.10757 49.8528 1.96824C49.8921 1.44395 50.3424 1.17589 51.3222 1.17589H51.5744C51.7265 1.17589 51.85 1.03857 51.85 0.869152C51.85 0.69973 51.7265 0.562403 51.5744 0.562403H40.8999C40.7478 0.562403 40.6243 0.69973 40.6243 0.869152C40.6243 1.03857 40.7478 1.17589 40.8999 1.17589H41.0832C41.8791 1.17589 42.5179 1.34641 43.0001 1.68747C43.4819 2.02853 43.9145 2.60664 44.2974 3.425L51.097 18.2104C51.1505 18.3263 51.2574 18.3991 51.3745 18.3991C51.4963 18.3991 51.6068 18.32 51.6575 18.1967L56.9232 5.39229L62.8006 18.1991C62.8568 18.3219 62.9704 18.3991 63.0942 18.3991C63.2232 18.3991 63.3406 18.3152 63.3941 18.1843L68.2646 6.28652L68.9987 4.7029C69.2435 4.20902 69.4734 3.80867 69.6882 3.50195C70.1618 2.8032 70.8084 2.11574 71.2061 1.83908C71.6037 1.56243 71.9272 1.38334 72.1908 1.30382C72.3977 1.2414 72.6281 1.19816 72.9327 1.18245C73.0814 1.17478 73.2005 1.03888 73.2005 0.872937C73.2005 0.701443 73.0756 0.562428 72.9216 0.562428H65.4214C65.2674 0.562428 65.1426 0.701394 65.1426 0.872817ZM43.4689 1.25994H46.9634C47.273 1.25994 47.5128 1.56214 47.474 1.90396C47.4735 1.90882 47.4729 1.91367 47.4724 1.91851C47.4405 2.2054 47.2215 2.42039 46.962 2.42039H44.4439C44.1512 1.92401 43.8394 1.54495 43.4689 1.25994ZM44.8136 3.12578C44.7749 3.04298 44.7361 2.96484 44.697 2.88694H47.237C47.4372 2.88694 47.6183 3.01555 47.7033 3.2171C47.7053 3.22206 47.7075 3.22703 47.7094 3.23202C47.8698 3.61132 47.6197 4.04737 47.2431 4.04737H45.2368L44.8136 3.12578ZM45.4511 4.51391H47.9567C48.1536 4.51391 48.3336 4.63723 48.4222 4.83274C48.5972 5.21869 48.3452 5.67438 47.9567 5.67438H45.9847L45.4511 4.51391ZM46.1994 6.14089H48.6944C48.891 6.14089 49.071 6.26421 49.1597 6.45972C49.3347 6.84564 49.0827 7.30133 48.6944 7.30133H46.7333L46.1994 6.14089ZM46.9479 7.76791H49.4319C49.6288 7.76791 49.8088 7.89119 49.8974 8.08674C50.0721 8.47265 49.8201 8.92835 49.4319 8.92835H47.4815L46.9479 7.76791ZM47.6961 9.39486H50.1696C50.3662 9.39486 50.5462 9.51817 50.6348 9.71372C50.8098 10.0996 50.5578 10.5554 50.1696 10.5554H48.2298L47.6961 9.39486ZM48.4444 11.0219H50.907C51.1039 11.0219 51.2837 11.1452 51.3726 11.3407C51.5473 11.7266 51.2953 12.1823 50.907 12.1823H48.9783L48.4444 11.0219ZM49.1929 12.6489H51.6448C51.8414 12.6489 52.0214 12.7722 52.11 12.9677C52.285 13.3536 52.033 13.8093 51.6448 13.8093H49.7265L49.1929 12.6489ZM50.9865 16.5482L50.6897 15.9028H51.341C51.6312 15.9028 51.8239 16.237 51.7032 16.5307C51.5647 16.8675 51.138 16.8779 50.9865 16.5482ZM51.8184 15.4363H50.475L49.9411 14.2758H51.8184C52.1981 14.2758 52.4503 14.7133 52.2925 15.0976C52.2075 15.3039 52.0225 15.4363 51.8184 15.4363ZM55.1836 1.25994H58.6783C58.9879 1.25994 59.2275 1.56214 59.189 1.90396C59.1884 1.90882 59.1879 1.91367 59.1873 1.91851C59.1555 2.2054 58.9364 2.42039 58.6767 2.42039H56.1589C55.8662 1.92401 55.5544 1.54495 55.1836 1.25994ZM56.5286 3.12578C56.4898 3.04298 56.4508 2.96484 56.412 2.88694H58.9519C59.1519 2.88694 59.3333 3.01557 59.418 3.2171C59.4202 3.22209 59.4222 3.22706 59.4244 3.23205C59.5847 3.61135 59.3347 4.04737 58.958 4.04737H56.9515L56.5286 3.12578ZM57.1658 4.51391H59.6717C59.8683 4.51391 60.0483 4.63723 60.1369 4.83274C60.3119 5.21869 60.0599 5.67441 59.6717 5.67441H57.6997L57.1658 4.51391ZM57.9143 6.14089H60.4091C60.606 6.14089 60.786 6.26421 60.8746 6.45972C61.0496 6.84564 60.7976 7.30133 60.4091 7.30133H58.4479L57.9143 6.14089ZM58.6626 7.76791H61.1468C61.3434 7.76791 61.5235 7.89119 61.6121 8.08674C61.7871 8.47265 61.5351 8.92835 61.1468 8.92835H59.1965L58.6626 7.76791ZM59.4111 9.39486H61.8843C62.0812 9.39486 62.2612 9.51817 62.3498 9.71369C62.5248 10.0996 62.2728 10.5553 61.8843 10.5553H59.9447L59.4111 9.39486ZM60.1593 11.0219H62.622C62.8186 11.0219 62.9986 11.1452 63.0872 11.3407C63.2622 11.7266 63.0102 12.1823 62.622 12.1823H60.6932L60.1593 11.0219ZM60.9076 12.6489H63.3595C63.5563 12.6489 63.7363 12.7722 63.825 12.9677C63.9997 13.3536 63.7477 13.8093 63.3595 13.8093H61.4415L60.9076 12.6489ZM62.7012 16.5482L62.4043 15.9028H63.0557C63.3459 15.9028 63.5386 16.2371 63.4179 16.5307C63.2794 16.8675 62.853 16.8779 62.7012 16.5482ZM63.5334 15.4363H62.1897L61.6561 14.2758H63.5334C63.913 14.2758 64.1653 14.7133 64.0072 15.0976C63.9224 15.3039 63.7372 15.4363 63.5334 15.4363ZM68.3047 3.34801C68.2599 3.1908 68.2075 3.0371 68.1477 2.88696H68.5997C68.8331 2.88696 68.979 3.16512 68.8652 3.39193C68.863 3.39637 68.8608 3.40079 68.8586 3.40523C68.7298 3.66265 68.3853 3.62879 68.3047 3.34801ZM68.9901 2.42041H67.9248C67.8168 2.22547 67.6944 2.03786 67.5537 1.85977C67.3726 1.63073 67.1738 1.43167 66.9594 1.25994H68.9976C69.4133 1.25994 69.6586 1.77711 69.4232 2.15823C69.4207 2.16233 69.4183 2.16642 69.4155 2.17052C69.3197 2.32627 69.1599 2.42041 68.9901 2.42041ZM92.5283 38C90.2611 38 88.2886 36.473 88.2886 33.7771C88.2886 31.2532 90.1548 29.5698 92.3397 29.5698C92.9426 29.5698 93.5095 29.6765 94.0647 29.9125C94.1594 29.9526 94.8916 30.2823 94.9741 30.2823C95.3045 30.2823 95.4933 30.0042 95.5526 29.6765H96.1433V32.8715H95.6711C95.1981 31.32 94.1948 30.1885 92.6474 30.1885C90.7809 30.1885 89.8361 31.8719 89.8361 33.7771C89.8361 35.765 90.7455 37.3813 92.6823 37.3813C94.2416 37.3813 95.1275 36.2636 95.7182 34.7786L96.3205 35.0262C95.6473 36.9467 94.4072 38 92.5283 38ZM104.13 37.7885V37.1698H104.567C104.696 37.1698 105.665 37.1698 105.264 36.1723C104.862 35.1708 104.744 34.8567 104.744 34.8567H101.035C101.035 34.8567 100.55 35.9747 100.492 36.1322C100.432 36.2771 100.043 37.1698 101.082 37.1698H101.625V37.7885H98.4606V37.1848H98.6134C98.6605 37.1848 99.2279 37.2501 99.6297 36.4083C100.032 35.5536 102.583 29.7412 102.583 29.7412H103.893C103.893 29.7412 106.398 35.9345 106.48 36.1325C106.551 36.328 106.835 37.1698 107.78 37.1698V37.7885H104.13ZM102.972 30.4782L101.283 34.238H104.484L102.972 30.4782ZM112.976 34.2116V36.2636C112.976 37.21 113.862 37.1698 114.476 37.1698V37.7885H110.294V37.1698C111.157 37.1698 111.794 37.21 111.794 36.0277V31.5041C111.794 30.2933 111.18 30.3735 110.294 30.3735V29.7412H115.185C116.543 29.7412 118.445 30.0974 118.445 32.0432C118.445 34.7636 114.476 34.2116 112.976 34.2116ZM114.712 30.3599C113.779 30.3599 112.976 30.2287 112.976 31.5158V33.6076H114.878C115.834 33.6076 117.027 33.3318 117.027 32.003C117.027 30.5448 115.74 30.3599 114.712 30.3599ZM120.754 37.7885V37.1582C121.569 37.1582 122.278 37.21 122.278 35.9875V31.4913C122.278 30.6495 121.923 30.3734 121.239 30.3734H120.754V29.7303L125.019 29.7411V30.3734H124.416C123.777 30.3734 123.493 30.7405 123.493 31.464V35.9744C123.493 37.1962 124.202 37.1582 125.019 37.1582V37.7885H120.754ZM135.373 32.5436L135.315 31.7674C135.219 30.5829 134.535 30.3599 133.591 30.3599C132.763 30.3599 132.431 30.5564 132.431 31.5308L132.407 36.0277C132.397 37.3411 133.201 37.1698 134.133 37.1698V37.7885H129.504V37.1698C130.437 37.1698 131.227 37.3411 131.227 36.0277V31.5041C131.227 30.5564 130.849 30.3599 130.058 30.3599C129.126 30.3599 128.44 30.5829 128.346 31.7674L128.286 32.5436H127.602V29.7412H136.047V32.5436H135.373ZM143.762 37.7885V37.1698H144.2C144.33 37.1698 145.298 37.1698 144.894 36.1723C144.494 35.1708 144.376 34.8567 144.376 34.8567H140.666C140.666 34.8567 140.182 35.9747 140.122 36.1322C140.064 36.2771 139.674 37.1698 140.714 37.1698H141.258V37.7885H138.09V37.1848H138.244C138.292 37.1848 138.86 37.2501 139.26 36.4083C139.664 35.5536 142.214 29.7412 142.214 29.7412H143.526C143.526 29.7412 146.03 35.9345 146.112 36.1325C146.184 36.328 146.467 37.1698 147.412 37.1698V37.7885H143.762ZM142.604 30.4782L140.916 34.238H144.116L142.604 30.4782ZM149.926 37.7885V37.1698C150.8 37.1698 151.426 37.21 151.426 36.0277V31.5041C151.426 30.2933 150.812 30.3735 149.926 30.3735V29.7412H154.214V30.3735C153.304 30.3735 152.608 30.2422 152.608 31.5041V36.0277C152.608 36.9985 153.01 37.1698 153.814 37.1698H155.23C157.12 37.1698 156.93 36.6979 157.074 34.6854H157.792V37.7885H149.926ZM246.308 15.5265H248.625V16.3646H248.376L248.351 16.1242C248.329 15.9125 248.191 15.8094 247.931 15.8094C247.786 15.8094 247.736 15.8381 247.719 15.8551C247.703 15.8714 247.677 15.92 247.677 16.0599V17.2352C247.677 17.4084 247.758 17.4857 247.941 17.4857H248.136V17.7576H246.807V17.4857H247.021C247.111 17.4857 247.176 17.4679 247.208 17.4346C247.24 17.4024 247.256 17.3335 247.256 17.2352V16.0489C247.256 15.9579 247.24 15.8927 247.208 15.8605C247.186 15.8371 247.132 15.8094 247.002 15.8094C246.742 15.8094 246.604 15.9125 246.581 16.1244L246.557 16.3646H246.308V15.5265ZM251.609 16.0489V17.2351C251.609 17.4084 251.678 17.4856 251.834 17.4856H252V17.7575H250.866V17.4856H250.915C251.178 17.4856 251.208 17.3405 251.208 17.2314V16.0193L250.536 17.7575H250.296L249.595 16.0457V17.2456C249.595 17.3487 249.624 17.4856 249.878 17.4856H249.928V17.7575H248.93V17.4856H249.086C249.249 17.4856 249.321 17.4117 249.321 17.2461V16.0488C249.321 15.9247 249.298 15.8749 249.278 15.8549C249.262 15.838 249.214 15.8093 249.086 15.8093H248.93V15.5265H249.812L250.493 17.1873L251.165 15.5265H252V15.8093H251.834C251.678 15.8093 251.609 15.8833 251.609 16.0489Z" fill="white"/>
</g>
<defs>
<clipPath id="clip0_1264_1264">
<rect width="252" height="38" fill="white"/>
</clipPath>
</defs>
</svg>
