<svg width="157" height="43" viewBox="0 0 157 43" fill="none" xmlns="http://www.w3.org/2000/svg">
<path d="M21.5941 10.7962C21.459 9.5644 20.8789 8.60748 19.854 7.92543C18.829 7.24337 17.4381 6.90235 15.681 6.90235C14.4871 6.90235 13.4791 7.05504 12.6568 7.36044C11.8346 7.65566 11.2039 8.06794 10.7646 8.59731C10.3366 9.12666 10.1226 9.72728 10.1226 10.3991C10.1001 10.959 10.2296 11.4477 10.5112 11.865C10.804 12.2824 11.2039 12.6439 11.7107 12.9492C12.2175 13.2444 12.8032 13.504 13.4677 13.728C14.1323 13.9418 14.8419 14.1251 15.5965 14.2776L18.7052 14.9496C20.2144 15.255 21.5998 15.6621 22.8612 16.1712C24.1227 16.6801 25.2153 17.3063 26.1388 18.0494C27.0624 18.7925 27.7777 19.668 28.2845 20.6758C28.8026 21.6836 29.0673 22.8391 29.0785 24.1421C29.0673 26.0559 28.5267 27.7152 27.4567 29.12C26.398 30.5147 24.8661 31.5988 22.8612 32.3725C20.8677 33.136 18.463 33.5177 15.6472 33.5177C12.8539 33.5177 10.4211 33.1309 8.34864 32.3573C6.28747 31.5836 4.67684 30.4384 3.51673 28.9216C2.36788 27.3945 1.7653 25.5062 1.70898 23.2564H8.78791C8.86675 24.3049 9.19901 25.1804 9.78471 25.8828C10.3816 26.5751 11.1757 27.0994 12.1669 27.4556C13.1693 27.8017 14.3013 27.9748 15.5628 27.9748C16.8017 27.9748 17.8773 27.812 18.7896 27.4862C19.7132 27.1605 20.4284 26.7074 20.9353 26.1271C21.4421 25.5468 21.6955 24.8801 21.6955 24.1267C21.6955 23.4244 21.4646 22.8339 21.0029 22.3555C20.5524 21.877 19.8878 21.4698 19.0093 21.1338C18.142 20.798 17.0776 20.4926 15.8161 20.2177L12.0486 19.3626C9.13143 18.7212 6.8281 17.7185 5.13863 16.3544C3.44915 14.9903 2.61004 13.1528 2.62131 10.842C2.61004 8.94851 3.16756 7.29427 4.29389 5.87926C5.43148 4.46426 6.99142 3.35973 8.97375 2.5657C10.9561 1.77166 13.2087 1.37465 15.7317 1.37465C18.2997 1.37465 20.541 1.77166 22.4558 2.5657C24.3818 3.35973 25.8799 4.46426 26.9498 5.87926C28.0198 7.29427 28.5717 8.93325 28.6055 10.7962H21.5941ZM32.4368 41.8704V9.62039H39.5325V13.56H39.8536C40.1689 12.9289 40.6251 12.2875 41.2221 11.636C41.8303 10.9743 42.6187 10.4246 43.5873 9.98687C44.5673 9.53895 45.7836 9.31499 47.2366 9.31499C49.1288 9.31499 50.8746 9.7629 52.474 10.6587C54.0734 11.5444 55.3517 12.883 56.3091 14.6747C57.2664 16.4562 57.7451 18.6907 57.7451 21.3782C57.7451 23.9944 57.2778 26.2035 56.3429 28.0053C55.4193 29.797 54.1578 31.156 52.5584 32.0824C50.9703 32.9986 49.1908 33.4566 47.2197 33.4566C45.823 33.4566 44.6348 33.248 43.6549 32.8306C42.6863 32.4133 41.8922 31.889 41.2727 31.2578C40.6532 30.6164 40.1802 29.97 39.8536 29.3185H39.6339V41.8704H32.4368ZM39.4819 21.3476C39.4819 22.7423 39.6959 23.9588 40.1239 24.9971C40.5519 26.0355 41.1713 26.8448 41.9823 27.4251C42.7933 27.9952 43.7788 28.2802 44.9388 28.2802C46.1103 28.2802 47.1015 27.99 47.9124 27.4099C48.7233 26.8193 49.3372 26.005 49.7539 24.9667C50.1819 23.9181 50.3959 22.7118 50.3959 21.3476C50.3959 19.9938 50.1875 18.8027 49.7708 17.7745C49.3541 16.7463 48.7403 15.9421 47.9293 15.3619C47.1183 14.7816 46.1215 14.4914 44.9388 14.4914C43.7675 14.4914 42.7763 14.7714 41.9654 15.3314C41.1657 15.8913 40.5519 16.6852 40.1239 17.7135C39.6959 18.7416 39.4819 19.953 39.4819 21.3476ZM68.3132 1.8022V33.0749H61.1161V1.8022H68.3132ZM72.6512 33.0749V9.62039H79.8485V33.0749H72.6512ZM76.2667 6.59695C75.1968 6.59695 74.2788 6.27628 73.513 5.63495C72.7583 4.98343 72.3809 4.20467 72.3809 3.29865C72.3809 2.40281 72.7583 1.63424 73.513 0.9929C74.2788 0.341383 75.1968 0.015625 76.2667 0.015625C77.3367 0.015625 78.2491 0.341383 79.0037 0.9929C79.7697 1.63424 80.1526 2.40281 80.1526 3.29865C80.1526 4.20467 79.7697 4.98343 79.0037 5.63495C78.2491 6.27628 77.3367 6.59695 76.2667 6.59695ZM95.8777 42.3591C93.5463 42.3591 91.5471 42.0689 89.8801 41.4886C88.2244 40.9186 86.9066 40.1398 85.9267 39.1524C84.9468 38.1649 84.3105 37.0553 84.0176 35.8235L90.6741 35.0142C90.8769 35.4825 91.1979 35.9202 91.6371 36.3274C92.0764 36.7346 92.6565 37.0604 93.3773 37.3047C94.1094 37.5592 94.9993 37.6864 96.0467 37.6864C97.6123 37.6864 98.9019 37.3403 99.9156 36.6481C100.941 35.9661 101.453 34.8208 101.453 33.2123V28.9216H101.149C100.834 29.5731 100.36 30.189 99.7298 30.7691C99.099 31.3494 98.2881 31.8228 97.2969 32.1892C96.3058 32.5557 95.1231 32.739 93.749 32.739C91.8005 32.739 90.0265 32.3318 88.4271 31.5175C86.8391 30.6928 85.5719 29.4356 84.6258 27.7457C83.691 26.0456 83.2235 23.8977 83.2235 21.3019C83.2235 18.6449 83.7022 16.4257 84.6596 14.6441C85.617 12.8627 86.8897 11.5291 88.4779 10.6435C90.0772 9.75782 91.8287 9.31499 93.7321 9.31499C95.1851 9.31499 96.4016 9.53895 97.3814 9.98687C98.3613 10.4246 99.1497 10.9743 99.7466 11.636C100.355 12.2875 100.822 12.9289 101.149 13.56H101.419V9.62039H108.566V33.3039C108.566 35.2993 108.025 36.9688 106.944 38.3126C105.863 39.6563 104.365 40.6641 102.45 41.3359C100.546 42.0181 98.3557 42.3591 95.8777 42.3591ZM96.0298 27.8526C97.1899 27.8526 98.1698 27.5931 98.9695 27.0739C99.7804 26.5446 100.4 25.7912 100.828 24.814C101.267 23.8265 101.487 22.6456 101.487 21.2713C101.487 19.897 101.273 18.706 100.845 17.6981C100.417 16.6801 99.7973 15.8913 98.9864 15.3314C98.1754 14.7714 97.1899 14.4914 96.0298 14.4914C94.8472 14.4914 93.8504 14.7816 93.0394 15.3619C92.2284 15.9319 91.6146 16.726 91.1978 17.744C90.7811 18.762 90.5728 19.9378 90.5728 21.2713C90.5728 22.6253 90.7811 23.796 91.1978 24.7834C91.6259 25.7606 92.2398 26.5191 93.0394 27.0586C93.8504 27.5879 94.8472 27.8526 96.0298 27.8526ZM120.063 19.5153V33.0749H112.866V1.8022H119.86V13.7586H120.164C120.75 12.3741 121.696 11.2899 123.003 10.506C124.309 9.71201 125.947 9.31499 127.919 9.31499C129.722 9.31499 131.293 9.67129 132.632 10.3839C133.984 11.0863 135.032 12.0992 135.775 13.4226C136.53 14.7358 136.902 16.3086 136.89 18.141V33.0749H129.692V19.3015C129.705 17.8559 129.298 16.7311 128.476 15.9269C127.666 15.1227 126.528 14.7206 125.064 14.7206C124.083 14.7206 123.216 14.9089 122.462 15.2855C121.719 15.6621 121.133 16.2119 120.705 16.9346C120.288 17.6473 120.074 18.5074 120.063 19.5153ZM154.93 9.62039V14.5068H139.303V9.62039H154.93ZM142.85 4.00107H150.048V25.8676C150.048 26.4682 150.149 26.9364 150.351 27.2724C150.554 27.5982 150.836 27.8272 151.197 27.9595C151.568 28.0919 151.996 28.1581 152.48 28.1581C152.818 28.1581 153.156 28.1326 153.494 28.0816C153.832 28.0206 154.09 27.9748 154.271 27.9443L155.403 32.7849C155.043 32.8866 154.536 33.0037 153.883 33.136C153.229 33.2786 152.435 33.365 151.5 33.3956C149.766 33.4566 148.246 33.248 146.939 32.7695C145.644 32.2911 144.635 31.548 143.914 30.5401C143.194 29.5323 142.839 28.2598 142.85 26.7226V4.00107Z" fill="#F4F4F4"/>
</svg>
