<svg width="254" height="40" viewBox="0 0 254 40" fill="none" xmlns="http://www.w3.org/2000/svg">
<path d="M0 29.3721H27.2284L18.1523 20.5475H9.07614V11.723L0 2.89844V29.3721Z" fill="white"/>
<path d="M34.4368 28.6481L36.0046 28.4357C37.399 28.2657 37.8777 28.0123 37.8777 27.6724V4.50691C37.8777 4.16695 37.6175 4.00012 35.6126 3.78766L34.4802 3.61769L34.3484 2.89844H48.8109L48.6791 3.61769L46.8495 3.83016C45.7169 3.91357 44.9764 4.16695 44.9764 4.59189V28.2672L46.5008 28.4798C50.8558 28.4798 53.5577 26.7012 56.4766 20.5176L56.9553 19.5009H58.3062L57.087 29.3705H34.3066L34.4368 28.6481Z" fill="white"/>
<path d="M61.5987 28.6498L62.2091 28.6073C63.4733 28.5238 63.952 28.3949 63.952 27.888V16.7925C63.952 14.1657 63.6018 13.8289 62.1223 13.4024L61.25 13.1899L70.2652 10.3365V27.9259C70.2652 28.3082 70.5254 28.3917 72.3551 28.6026L72.7471 28.6451L72.8787 29.3643H61.4669L61.597 28.6451V28.6498H61.5987ZM63.1231 4.3811C63.1231 2.56016 64.6025 0.824219 66.8676 0.824219C69.1326 0.824219 70.6587 2.56174 70.6587 4.3811C70.6587 6.20204 69.2226 7.98049 66.8676 7.98049C64.5142 7.98049 63.1231 6.20047 63.1231 4.3811Z" fill="white"/>
<path d="M75.8215 26.8243C75.8215 24.5374 78.1733 22.8423 80.7452 22.1231V22.0806C78.2617 21.2339 76.5654 19.6239 76.5654 16.7028C76.5654 13.3158 80.0496 10.1367 85.1901 10.1367C87.1515 10.1367 89.2414 10.6026 90.5924 11.3659L96.9522 10.6891L96.6019 13.3993L92.247 12.7635L92.2036 12.8909C93.161 13.6968 93.7297 14.8818 93.7297 16.1944C93.7297 19.9638 90.157 22.6315 84.8865 22.6315C83.7973 22.6315 82.7965 22.5449 81.8809 22.375C80.7485 22.6725 79.9661 23.4767 79.9661 24.2824C79.9661 25.2975 80.9669 25.765 83.2753 25.765C84.6263 25.765 87.8053 25.6376 89.4599 25.6376C93.3361 25.6376 96.0381 27.7559 96.0381 31.1429C96.0381 35.674 90.9426 39.5708 83.754 39.5708C78.0915 39.5708 75.3027 38.1716 75.3027 35.3356C75.3027 33.0912 77.8729 31.9486 80.4866 30.9729C77.9179 30.6739 75.8248 28.8544 75.8248 26.8211H75.8215V26.8243ZM91.9418 34.0671C91.9418 31.9062 90.4591 31.2294 87.3684 31.017C86.411 30.8894 84.4062 30.9744 81.5757 31.1003C80.3115 31.6528 79.9645 32.7528 79.9645 34.2779C79.9645 36.5647 82.2296 38.3007 86.0174 38.3007C89.5483 38.3022 91.9418 36.4814 91.9418 34.0671ZM87.8053 16.5313C87.8053 12.8894 86.8045 11.0669 85.1468 11.0669C83.3605 11.0669 82.6199 12.5085 82.6199 16.4887C82.6199 20.1715 83.5339 21.7832 85.1468 21.7832C86.9764 21.7848 87.8053 20.3856 87.8053 16.5313Z" fill="white"/>
<path d="M99.2776 28.6073C100.585 28.5238 101.019 28.3947 101.019 27.888V6.79693C101.019 4.72259 100.759 4.34014 99.5395 3.95928L98.3203 3.49342L107.424 0.613281V13.8273H107.467C109.689 12.0488 112.302 10.1445 115.003 10.1445C116.439 10.1445 117.571 10.6513 118.619 11.6695C119.619 12.6863 120.055 14.6331 120.055 16.7106V27.8927C120.055 28.1886 120.273 28.3586 122.188 28.612L122.667 28.6545L122.797 29.3738H111.517L111.647 28.6545L112.387 28.612C113.824 28.5285 113.782 28.2327 113.782 27.8927V17.9398C113.782 14.8063 112.431 14.0004 110.384 14.0004C109.12 14.0004 108.076 14.4238 107.335 14.8472V27.9336C107.335 28.3161 107.554 28.4861 109.033 28.6104L109.73 28.6529L109.859 29.3721H98.5323L99.2728 28.6088L99.2776 28.6073Z" fill="white"/>
<path d="M142.789 28.8203L142.658 23.4L143.877 23.4865L145.053 25.8582C146.535 27.9751 147.712 29.0784 149.976 29.0784C152.242 29.0784 153.417 27.8932 153.417 26.0707C153.417 24.0798 151.196 23.3165 148.757 22.3849C145.449 21.1573 142.745 19.8446 142.745 16.3711C142.745 12.6018 145.882 10.1875 150.583 10.1875C152.151 10.1875 153.938 10.4834 155.113 10.8642L157.246 10.1875L157.465 16.4986L156.333 16.5411L153.024 11.7991C152.327 11.4167 151.587 11.1224 150.54 11.1224C148.667 11.1224 147.492 12.1816 147.492 13.9159C147.492 15.8235 149.496 16.5427 152.108 17.5154C155.113 18.7004 158.336 19.9297 158.336 23.6564C158.336 26.9599 155.678 29.9676 149.843 29.9676C147.184 29.9676 144.488 29.5018 142.787 28.8218" fill="white"/>
<path d="M160.266 39.28L161.182 39.1934C162.402 39.1099 162.882 39.0234 162.882 38.515V16.7897C162.882 14.1629 162.578 13.823 161.096 13.3996L160.179 13.1872L169.242 10.3448L169.154 13.952L169.33 14.0355C170.941 12.0446 173.337 10.3086 175.993 10.3086C180.391 10.3086 183.879 14.2479 183.879 19.4558C183.879 26.1887 178.389 29.9596 173.031 29.9596C171.42 29.9596 170.112 29.7062 169.33 29.3663H169.2V38.6C169.2 38.9399 169.459 39.1525 171.248 39.1934L172.73 39.28L172.862 39.9992H160.143L160.275 39.28H160.266ZM177.081 21.1524C177.081 16.8306 175.208 13.8261 172.289 13.8261C170.938 13.8261 170.023 14.3361 169.195 14.9279V25.6426C170.589 27.7609 172.243 29.0735 173.464 29.0735C175.73 29.0735 177.081 25.685 177.081 21.1524Z" fill="white"/>
<path d="M186.592 20.4012C186.592 14.43 191.297 9.94141 197.394 9.94141C202.534 9.94141 205.189 13.119 205.189 16.295C205.189 16.7184 205.146 17.1842 205.06 17.5667C205.06 17.5667 194.997 17.4392 193.297 17.3542C193.254 17.7367 193.254 18.4134 193.254 18.7959C193.297 23.242 195.65 26.3346 199.482 26.3346C201.879 26.3346 203.665 25.1888 204.841 23.0735L205.363 23.327C203.837 27.5622 200.79 29.9323 195.997 29.9323C190.687 29.9308 186.592 25.9506 186.592 20.4012ZM199.356 16.5485C199.399 13.7549 198.788 11.0006 196.786 11.0006C195.089 11.0006 193.606 12.949 193.302 16.5909L199.358 16.5485H199.356Z" fill="white"/>
<path d="M207.991 20.5144C207.991 14.5433 212.693 10.0547 218.792 10.0547C223.933 10.0547 226.589 13.2323 226.589 16.4083C226.589 16.8316 226.545 17.2975 226.457 17.68C226.457 17.68 216.396 17.5525 214.694 17.4675C214.651 17.85 214.651 18.5267 214.651 18.9091C214.694 23.3553 217.047 26.4479 220.88 26.4479C223.276 26.4479 225.063 25.3021 226.238 23.1868L226.761 23.4403C225.234 27.6755 222.187 30.0456 217.396 30.0456C212.079 30.0456 207.986 26.0654 207.986 20.5161H207.991V20.5144ZM220.75 16.6616C220.795 13.8681 220.185 11.1139 218.182 11.1139C216.485 11.1139 215.002 13.0623 214.698 16.7042L220.75 16.6616Z" fill="white"/>
<path d="M244.204 26.2376L244.118 26.1541C242.55 28.1859 239.981 29.966 237.411 29.966C232.966 29.966 229.525 25.9432 229.525 20.7323C229.525 13.9994 235.013 10.3134 240.634 10.3134C242.202 10.3134 243.334 10.5259 244.164 10.8202C244.164 10.8202 244.207 10.9036 244.207 10.8202V6.33158C244.207 4.21318 243.903 3.74732 242.724 3.45145L241.069 2.98558L250.519 0V24.8385C250.519 26.9127 250.783 27.3802 252.046 27.7186L253.265 28.0144L253.178 28.5637L244.207 30.0022V26.2328V26.2376H244.204ZM244.204 25.1769V14.6761C242.897 12.6018 241.242 11.2451 240.11 11.2451C237.715 11.2451 236.365 14.5487 236.365 19.1237C236.365 23.6989 238.238 26.579 241.026 26.579C242.334 26.579 243.291 25.9432 244.207 25.1816" fill="white"/>
<path d="M139.966 25.6816C139.18 26.2748 138.004 26.8242 136.436 26.8242C134.128 26.8242 132.996 25.7649 133.039 22.419L133.168 13.5252H139.309L139.874 10.8984H133.211L133.254 5.91406L127.193 7.82786L127.227 10.8858H126.094L125.585 11.3816L123.373 13.5315H123.807L127.242 13.6543L127.068 23.6481C126.981 27.8408 128.854 29.8743 132.863 29.8743C135.868 29.8743 138.132 28.3492 140.137 26.2309L139.962 25.6816H139.966Z" fill="white"/>
</svg>
