<svg width="287" height="20" viewBox="0 0 287 24" fill="none" xmlns="http://www.w3.org/2000/svg">
<path d="M0.248633 22V0.999999H3.87863L10.9886 18.52L18.0386 0.999999H21.6986V22H18.7886V6.07L12.3086 22H9.60863L3.18863 6.1V22H0.248633ZM24.8479 22L33.4879 0.999999H36.3979L45.0679 22H42.0379L39.6979 16.3H30.2179L27.8779 22H24.8479ZM31.2979 13.69H38.6179L34.9579 4.75L31.2979 13.69ZM56.065 22.36C54.145 22.36 52.425 21.91 50.905 21.01C49.405 20.11 48.225 18.84 47.365 17.2C46.525 15.54 46.105 13.62 46.105 11.44C46.105 9.34 46.525 7.48 47.365 5.86C48.205 4.22 49.405 2.94 50.965 2.02C52.525 1.1 54.345 0.64 56.425 0.64C59.125 0.64 61.355 1.39 63.115 2.89C64.875 4.39 65.975 6.45 66.415 9.07H63.415C63.035 7.27 62.235 5.86 61.015 4.84C59.795 3.8 58.265 3.28 56.425 3.28C54.945 3.28 53.655 3.61 52.555 4.27C51.475 4.93 50.635 5.88 50.035 7.12C49.455 8.34 49.165 9.78 49.165 11.44C49.165 13.12 49.455 14.59 50.035 15.85C50.635 17.09 51.465 18.05 52.525 18.73C53.585 19.39 54.815 19.72 56.215 19.72C57.415 19.72 58.465 19.47 59.365 18.97C60.285 18.45 60.995 17.74 61.495 16.84C61.995 15.92 62.245 14.89 62.245 13.75H55.465V11.26H62.755C63.955 11.26 64.865 11.55 65.485 12.13C66.105 12.71 66.415 13.56 66.415 14.68V22H63.835V15.1H63.775C63.635 16.6 63.235 17.9 62.575 19C61.935 20.08 61.065 20.91 59.965 21.49C58.865 22.07 57.565 22.36 56.065 22.36ZM70.6783 22V0.999999H73.6183V22H70.6783ZM87.8327 22.36C85.7327 22.36 83.8927 21.9 82.3127 20.98C80.7527 20.06 79.5527 18.78 78.7127 17.14C77.8727 15.48 77.4527 13.58 77.4527 11.44C77.4527 9.34 77.8727 7.48 78.7127 5.86C79.5527 4.22 80.7527 2.94 82.3127 2.02C83.8727 1.1 85.7127 0.64 87.8327 0.64C90.5127 0.64 92.7327 1.39 94.4927 2.89C96.2527 4.37 97.3627 6.43 97.8227 9.07H94.7927C94.4327 7.27 93.6327 5.86 92.3927 4.84C91.1727 3.8 89.6527 3.28 87.8327 3.28C86.3327 3.28 85.0327 3.62 83.9327 4.3C82.8327 4.96 81.9827 5.9 81.3827 7.12C80.8027 8.34 80.5127 9.78 80.5127 11.44C80.5127 13.14 80.8027 14.62 81.3827 15.88C81.9827 17.12 82.8327 18.07 83.9327 18.73C85.0327 19.39 86.3327 19.72 87.8327 19.72C89.6927 19.72 91.2227 19.22 92.4227 18.22C93.6427 17.22 94.4327 15.79 94.7927 13.93H97.8227C97.3427 16.65 96.2427 18.74 94.5227 20.2C92.8027 21.64 90.5727 22.36 87.8327 22.36ZM106.615 22L112.345 14.08L106.675 6.1H109.915L113.995 11.95L118.045 6.1H121.255L115.585 14.08L121.345 22H118.075L113.995 16.12L109.855 22H106.615ZM131.059 22V0.999999H145.549V3.67H133.969V9.82H144.409V12.43H133.969V19.33H145.819V22H131.059ZM155.845 22L147.685 0.999999H150.835L157.405 17.98L163.765 0.999999H166.885L158.965 22H155.845ZM169.79 22V0.999999H184.28V3.67H172.7V9.82H183.14V12.43H172.7V19.33H184.55V22H169.79ZM188.305 22V0.999999H198.145C199.445 0.999999 200.605 1.25 201.625 1.75C202.645 2.23 203.435 2.92 203.995 3.82C204.575 4.7 204.865 5.71 204.865 6.85C204.865 8.11 204.465 9.23 203.665 10.21C202.865 11.19 201.805 11.87 200.485 12.25C201.085 12.39 201.595 12.65 202.015 13.03C202.435 13.41 202.755 13.88 202.975 14.44L205.825 22H202.705L200.095 14.95C199.935 14.53 199.685 14.2 199.345 13.96C199.005 13.72 198.585 13.6 198.085 13.6H191.245V22H188.305ZM198.145 11.02C198.945 11.02 199.625 10.85 200.185 10.51C200.765 10.17 201.195 9.71 201.475 9.13C201.775 8.55 201.925 7.91 201.925 7.21C201.925 6.11 201.575 5.25 200.875 4.63C200.175 3.99 199.265 3.67 198.145 3.67H191.245V11.02H198.145ZM214.081 22V12.85L206.101 0.999999H209.521L215.581 10.06L221.581 0.999999H225.001L216.991 12.85V22H214.081ZM235.545 22.36C233.545 22.36 231.765 21.92 230.205 21.04C228.645 20.14 227.435 18.86 226.575 17.2C225.715 15.54 225.285 13.62 225.285 11.44C225.285 9.34 225.695 7.48 226.515 5.86C227.355 4.22 228.545 2.94 230.085 2.02C231.645 1.1 233.465 0.64 235.545 0.64C237.565 0.64 239.355 1.09 240.915 1.99C242.475 2.87 243.685 4.13 244.545 5.77C245.405 7.39 245.835 9.28 245.835 11.44C245.835 13.56 245.415 15.45 244.575 17.11C243.755 18.75 242.565 20.04 241.005 20.98C239.465 21.9 237.645 22.36 235.545 22.36ZM235.545 19.72C237.025 19.72 238.315 19.38 239.415 18.7C240.535 18.02 241.385 17.06 241.965 15.82C242.565 14.58 242.865 13.12 242.865 11.44C242.865 9.78 242.565 8.34 241.965 7.12C241.365 5.9 240.515 4.96 239.415 4.3C238.315 3.62 237.025 3.28 235.545 3.28C234.085 3.28 232.805 3.62 231.705 4.3C230.605 4.96 229.755 5.9 229.155 7.12C228.575 8.34 228.285 9.78 228.285 11.44C228.285 13.12 228.575 14.58 229.155 15.82C229.755 17.06 230.605 18.02 231.705 18.7C232.805 19.38 234.085 19.72 235.545 19.72ZM249.682 22V0.999999H252.952L264.292 17.8V0.999999H267.202V22H263.932L252.622 5.2V22H249.682ZM272.036 22V0.999999H286.526V3.67H274.946V9.82H285.386V12.43H274.946V19.33H286.796V22H272.036Z" fill="white"/>
</svg>
