<svg width="748" height="743" viewBox="0 0 748 743" fill="none" xmlns="http://www.w3.org/2000/svg">
<path d="M72.8651 153L51.9854 162.868L70.9708 176.016L72.8651 153ZM371.852 739C168.694 739 4 574.197 4 370.899H0C0 576.404 166.482 743 371.852 743V739ZM598.765 660.642C536.258 709.73 457.473 739 371.852 739V743C458.401 743 538.049 713.409 601.235 663.788L598.765 660.642ZM4 370.899C4 296.298 26.1754 226.885 64.2893 168.894L60.9467 166.697C22.417 225.321 0 295.493 0 370.899H4Z" fill="#D9D9D9"/>
<path d="M675.016 590L695.904 580.149L676.929 566.985L675.016 590ZM375.53 4.00009C579.032 4.00011 744 168.806 744 372.101L748 372.101C748 166.593 581.238 0.000107666 375.53 8.96828e-05L375.53 4.00009ZM148.234 82.3592C210.846 33.2708 289.763 4.00008 375.53 4.00009L375.53 8.96828e-05C288.838 8.21039e-05 209.058 29.5903 145.766 79.2113L148.234 82.3592ZM744 372.101C744 446.702 721.788 516.114 683.61 574.104L686.951 576.304C725.545 517.681 748 447.507 748 372.101L744 372.101Z" fill="#D9D9D9"/>
</svg>
