<svg width="389" height="352" viewBox="0 0 389 352" fill="none" xmlns="http://www.w3.org/2000/svg">
<path d="M15.9554 284.715L140.506 36.1948C162.673 -8.03499 225.749 -8.15943 248.09 35.9832L373.882 284.559C388.832 314.101 367.365 349.026 334.26 349.026H55.6576C22.6279 349.026 1.15768 314.245 15.9585 284.715H15.9554Z" stroke="url(#paint0_linear_1264_998)" stroke-width="4.55689" stroke-miterlimit="10"/>
<g filter="url(#filter0_b_1264_998)">
<path d="M15.9554 284.715L140.506 36.1948C162.673 -8.03499 225.749 -8.15943 248.09 35.9832L373.882 284.559C388.832 314.102 367.365 349.026 334.26 349.026H55.6576C22.6279 349.026 1.15768 314.245 15.9585 284.715H15.9554Z" fill="black" fill-opacity="0.7"/>
<path d="M15.9554 284.715L140.506 36.1948C162.673 -8.03499 225.749 -8.15943 248.09 35.9832L373.882 284.559C388.832 314.102 367.365 349.026 334.26 349.026H55.6576C22.6279 349.026 1.15768 314.245 15.9585 284.715H15.9554Z" stroke="url(#paint1_linear_1264_998)" stroke-width="4.55689" stroke-miterlimit="10"/>
</g>
<path d="M204.03 66.3726C194.918 57.3204 195.407 29.5156 195.407 29.5156H194.593C194.593 29.5156 195.082 57.4831 185.97 66.3726C176.859 75.2647 148.707 75.102 148.707 75.102V75.9103C148.707 75.9103 176.856 75.5875 185.97 84.6397C188.845 87.4952 190.763 92.2168 192.044 97.3426C193.257 102.198 193.811 107.193 193.811 112.195V191.547H196.189V112.124C196.189 107.122 196.744 102.125 197.959 97.2691C199.24 92.146 201.158 87.4454 204.033 84.6423C213.145 75.5901 241.296 75.9129 241.296 75.9129V75.1046C241.296 75.1046 213.147 75.4274 204.033 66.3752L204.03 66.3726Z" fill="#FF3E16"/>
<path d="M193.267 112.184C193.267 169.406 146.496 215.795 89.1855 215.795H299.716C242.405 215.795 195.634 169.406 195.634 112.184" fill="#FF3E16"/>
<path d="M158.799 246.937V246.823C158.799 245.494 157.469 243.709 150.52 243.709C143.343 243.709 142.356 245.494 142.356 246.823V246.937C142.356 248.342 143.343 250.127 150.52 250.127C157.621 250.127 158.799 248.304 158.799 246.937ZM151.887 266.57H150.368C137.837 266.57 134.267 261.367 134.267 257.722V257.57H143.419C143.533 257.987 144.406 260.038 150.938 260.038C159.026 260.038 159.938 255.367 159.938 253.431V253.317C159.14 253.924 156.596 256.051 148.697 256.051H148.204C136.356 256.051 133.052 251.76 133.052 247.279V246.937C133.052 242.76 134.913 237.254 149.533 237.254H151.204C165.292 237.254 168.824 244.051 168.824 251.456V252.367C168.824 259.013 165.634 266.57 151.887 266.57ZM170.388 254.798L190.286 237.633H199.818V253.582H205.552V260.152H199.818V266H191.084V260.152H170.388V254.798ZM191.084 253.582V244.697L180.717 253.582H191.084ZM216.917 253.81H216.006C206.778 253.81 205.297 248.646 205.297 245.874V245.228C205.297 242.418 206.778 237.406 216.006 237.406H216.917C226.107 237.406 227.588 242.418 227.588 245.228V245.874C227.588 248.646 226.145 253.81 216.917 253.81ZM242.436 237.747H249.955L219.5 266H212.019L242.436 237.747ZM216.424 249.139C220.221 249.139 221.474 247.355 221.474 245.722V245.418C221.474 243.595 220.259 242.076 216.424 242.076C212.626 242.076 211.449 243.595 211.449 245.418V245.646C211.449 247.355 212.664 249.139 216.424 249.139ZM246.043 266.304H245.094C235.942 266.304 234.385 261.101 234.385 258.329V257.684C234.385 254.874 235.942 249.861 245.094 249.861H246.043C255.195 249.861 256.714 254.874 256.714 257.684V258.329C256.714 261.101 255.233 266.304 246.043 266.304ZM245.55 261.595C249.347 261.595 250.6 259.81 250.6 258.177V257.874C250.6 256.165 249.385 254.532 245.55 254.532C241.714 254.532 240.537 256.165 240.537 257.874V258.101C240.537 259.81 241.752 261.595 245.55 261.595Z" fill="white"/>
<path d="M117.881 286.782H134.03V290.331H122.753V292.641H133.757V296.211H122.753V302.406H117.881V286.782ZM146.466 286.509H147.369C157.197 286.509 158.352 291.444 158.352 294.237V294.867C158.352 297.618 157.218 302.679 147.369 302.679H146.466C136.575 302.679 135.462 297.618 135.462 294.867V294.237C135.462 291.444 136.575 286.509 146.466 286.509ZM153.228 294.678V294.384C153.228 292.599 152.199 290.289 146.907 290.289C141.531 290.289 140.586 292.599 140.586 294.384V294.636C140.586 296.421 141.615 298.878 146.907 298.878C152.157 298.878 153.228 296.484 153.228 294.678ZM170.417 302.637H169.661C161.282 302.637 159.917 297.303 159.917 294.363V286.782H164.831V294.069C164.831 296.085 165.734 298.584 169.997 298.584C174.197 298.584 175.121 296.085 175.121 294.069V286.782H180.014V294.363C180.014 297.303 178.418 302.637 170.417 302.637ZM182.214 286.782H187.674L197.649 296.61V286.782H202.479V302.406H197.649L187.044 292.053V302.406H182.214V286.782ZM204.875 302.406V286.782H215.228C224.279 286.782 226.253 290.667 226.253 294.174V294.804C226.253 298.164 224.384 302.406 215.249 302.406H204.875ZM209.768 290.478V298.647H214.85C220.394 298.647 221.129 296.211 221.129 294.615V294.489C221.129 292.893 220.478 290.478 214.85 290.478H209.768ZM227.926 286.782H244.39V290.331H232.756V292.641H244.117V296.211H232.756V298.773H244.6V302.406H227.926V286.782ZM251.522 290.331V293.397H258.935C260.342 293.397 260.909 292.725 260.909 291.864V291.843C260.909 291.024 260.363 290.331 258.935 290.331H251.522ZM251.522 296.862V302.406H246.629V286.782H259.229C264.437 286.782 266.012 288.588 266.012 290.835V291.087C266.012 293.334 264.143 294.174 263.114 294.51C264.71 294.972 266.075 296.085 266.075 298.101V300.39C266.075 301.65 266.222 302.049 266.369 302.301V302.406H261.392C261.245 302.217 261.161 301.986 261.161 301.419V299.613C261.161 297.702 260.321 296.862 257.906 296.862H251.522ZM96.2385 323.679H94.7895C86.5995 323.679 85.6545 320.151 85.6545 318.093V317.862H90.7575C90.8205 318.807 91.3665 320.34 95.3985 320.34H95.6925C99.8085 320.34 100.27 319.521 100.27 318.681C100.27 317.778 99.7875 317.211 96.1755 317.106L93.4875 317.043C87.6495 316.875 85.8645 314.901 85.8645 312.465V312.276C85.8645 309.945 87.2505 307.509 94.3695 307.509H95.8185C103.21 307.509 104.89 310.092 104.89 312.444V312.654H99.8085C99.7035 312.066 99.3885 310.785 95.2935 310.785H94.9575C91.1775 310.785 90.9045 311.457 90.9045 312.129C90.9045 312.801 91.3245 313.41 94.5165 313.473L97.1415 313.515C103.021 313.62 105.394 315.048 105.394 318.156V318.45C105.394 321.033 104.092 323.679 96.2385 323.679ZM119.087 317.022L116.063 311.163L113.165 317.022H119.087ZM122.363 323.406L120.893 320.55H111.422L110.015 323.406H105.038L112.934 307.782H119.276L127.634 323.406H122.363ZM131.61 323.406V311.478H124.89V307.782H143.286V311.478H136.545V323.406H131.61ZM149.957 307.782V323.406H145.064V307.782H149.957ZM162.13 323.679H160.681C152.491 323.679 151.546 320.151 151.546 318.093V317.862H156.649C156.712 318.807 157.258 320.34 161.29 320.34H161.584C165.7 320.34 166.162 319.521 166.162 318.681C166.162 317.778 165.679 317.211 162.067 317.106L159.379 317.043C153.541 316.875 151.756 314.901 151.756 312.465V312.276C151.756 309.945 153.142 307.509 160.261 307.509H161.71C169.102 307.509 170.782 310.092 170.782 312.444V312.654H165.7C165.595 312.066 165.28 310.785 161.185 310.785H160.849C157.069 310.785 156.796 311.457 156.796 312.129C156.796 312.801 157.216 313.41 160.408 313.473L163.033 313.515C168.913 313.62 171.286 315.048 171.286 318.156V318.45C171.286 321.033 169.984 323.679 162.13 323.679ZM172.954 307.782H189.103V311.331H177.826V313.641H188.83V317.211H177.826V323.406H172.954V307.782ZM201.692 317.022L198.668 311.163L195.77 317.022H201.692ZM204.968 323.406L203.498 320.55H194.027L192.62 323.406H187.643L195.539 307.782H201.881L210.239 323.406H204.968ZM220.537 323.679H219.676C210.625 323.679 209.218 318.618 209.218 315.846V315.237C209.218 312.402 210.436 307.509 219.676 307.509H220.537C229.588 307.509 230.995 311.835 230.995 313.662V313.893H225.808C225.682 313.473 225.052 311.289 220.096 311.289C215.413 311.289 214.342 313.389 214.342 315.342V315.594C214.342 317.442 215.581 319.878 220.138 319.878C225.199 319.878 225.703 317.463 225.829 317.106H231.016V317.337C231.016 319.311 229.462 323.679 220.537 323.679ZM238.477 323.406V311.478H231.757V307.782H250.153V311.478H243.412V323.406H238.477ZM256.823 307.782V323.406H251.93V307.782H256.823ZM269.584 307.509H270.487C280.315 307.509 281.47 312.444 281.47 315.237V315.867C281.47 318.618 280.336 323.679 270.487 323.679H269.584C259.693 323.679 258.58 318.618 258.58 315.867V315.237C258.58 312.444 259.693 307.509 269.584 307.509ZM276.346 315.678V315.384C276.346 313.599 275.317 311.289 270.025 311.289C264.649 311.289 263.704 313.599 263.704 315.384V315.636C263.704 317.421 264.733 319.878 270.025 319.878C275.275 319.878 276.346 317.484 276.346 315.678ZM283.225 307.782H288.685L298.66 317.61V307.782H303.49V323.406H298.66L288.055 313.053V323.406H283.225V307.782Z" fill="#C1C1C1"/>
<defs>
<filter id="filter0_b_1264_998" x="4.1601" y="-4.08013" width="381.598" height="360.137" filterUnits="userSpaceOnUse" color-interpolation-filters="sRGB">
<feFlood flood-opacity="0" result="BackgroundImageFix"/>
<feGaussianBlur in="BackgroundImageFix" stdDeviation="2.376"/>
<feComposite in2="SourceAlpha" operator="in" result="effect1_backgroundBlur_1264_998"/>
<feBlend mode="normal" in="SourceGraphic" in2="effect1_backgroundBlur_1264_998" result="shape"/>
</filter>
<linearGradient id="paint0_linear_1264_998" x1="40.4751" y1="2.94921" x2="394.117" y2="380.276" gradientUnits="userSpaceOnUse">
<stop stop-color="#FF00C4"/>
<stop offset="0.73" stop-color="#FF3E16"/>
</linearGradient>
<linearGradient id="paint1_linear_1264_998" x1="40.4751" y1="2.94921" x2="394.117" y2="380.276" gradientUnits="userSpaceOnUse">
<stop stop-color="#FF00C4"/>
<stop offset="0.73" stop-color="#FF3E16"/>
</linearGradient>
</defs>
</svg>










