<svg width="183" height="42" viewBox="0 0 183 42" fill="none" xmlns="http://www.w3.org/2000/svg">
<path fill-rule="evenodd" clip-rule="evenodd" d="M165.225 28.3784C165.461 28.1126 165.765 28.013 166.103 28.013H181.714C182.423 28.013 182.998 27.4482 182.998 26.7506V25.754C182.998 25.754 182.896 25.4883 182.727 25.4883H166.103C164.921 25.4883 163.907 25.8869 163.096 26.7174C162.285 27.5147 161.846 28.5113 161.846 29.6739V35.9192C161.846 37.0819 162.251 38.0785 163.096 38.8757C163.907 39.673 164.921 40.1049 166.103 40.1049H182.727C182.727 40.1049 182.998 40.0052 182.998 39.8391V38.8425C182.998 38.1449 182.423 37.5802 181.714 37.5802H166.103C165.765 37.5802 165.461 37.4473 165.225 37.2148C164.988 36.949 164.853 36.6833 164.853 36.3511V34.3247C164.853 34.3247 164.954 34.0589 165.123 34.0589H179.653C180.362 34.0589 180.937 33.4942 180.937 32.7966V31.8C180.937 31.8 180.835 31.5342 180.666 31.5342H165.123C165.123 31.5342 164.853 31.4346 164.853 31.2685V29.2421C164.853 28.9099 164.988 28.6109 165.225 28.3784Z" fill="white"/>
<path fill-rule="evenodd" clip-rule="evenodd" d="M156.251 25.4883H139.627C138.444 25.4883 137.43 25.8869 136.619 26.7174C135.808 27.5147 135.369 28.5113 135.369 29.6739V35.9192C135.369 37.0819 135.775 38.0785 136.619 38.8757C137.43 39.673 138.444 40.0717 139.627 40.0717H156.285C156.285 40.0717 156.555 39.972 156.555 39.8059V38.8093C156.555 38.1117 155.981 37.547 155.271 37.547H139.66C139.322 37.547 139.018 37.4141 138.782 37.1816C138.545 36.9158 138.41 36.65 138.41 36.3178V29.2753C138.41 28.9431 138.545 28.6441 138.782 28.4116C139.018 28.1458 139.322 28.0462 139.66 28.0462H155.271C155.981 28.0462 156.555 27.4815 156.555 26.7838V25.7873C156.555 25.7873 156.386 25.5215 156.285 25.5215L156.251 25.4883Z" fill="white"/>
<path fill-rule="evenodd" clip-rule="evenodd" d="M71.1081 31.5284H58.4371C58.0992 31.5284 57.7951 31.3955 57.5586 31.1629C57.3221 30.9304 57.1869 30.6314 57.1869 30.2992V29.2694C57.1869 28.9372 57.3221 28.6383 57.5586 28.4057C57.7951 28.1732 58.0992 28.0403 58.4371 28.0403H73.203C73.9126 28.0403 74.487 27.4756 74.487 26.778V25.7814C74.487 25.7814 74.3857 25.5156 74.2167 25.5156H58.4033C57.2545 25.5156 56.2408 25.9143 55.4299 26.7447C54.6189 27.542 54.1797 28.5386 54.1797 29.6681V29.8674C54.1797 30.9968 54.5852 31.9934 55.4299 32.7907C56.2408 33.588 57.2545 34.0198 58.4033 34.0198H71.0743C71.4122 34.0198 71.7163 34.1527 71.9528 34.3852C72.1894 34.651 72.3245 34.9167 72.3245 35.2489V36.2788C72.3245 36.6109 72.1894 36.9099 71.9528 37.1425C71.7163 37.375 71.4122 37.5079 71.0743 37.5079H56.3084C55.5988 37.5079 55.0244 38.0726 55.0244 38.7702V39.7668C55.0244 39.7668 55.1258 40.0326 55.2947 40.0326H71.1081C72.257 40.0326 73.2706 39.6339 74.0816 38.8034C74.8925 38.0062 75.3318 37.0096 75.3318 35.8469V35.6476C75.3318 34.4849 74.9263 33.4883 74.0816 32.691C73.2706 31.9602 72.257 31.5284 71.1081 31.5284Z" fill="white"/>
<path fill-rule="evenodd" clip-rule="evenodd" d="M125.194 25.4883H112.523C111.34 25.4883 110.327 25.8869 109.516 26.7174C108.705 27.5479 108.266 28.5113 108.266 29.6407V39.7727C108.266 39.7727 108.367 40.0384 108.536 40.0384H109.955C110.665 40.0384 111.239 39.4737 111.239 38.7761V35.5206C111.239 35.5206 111.34 35.2548 111.509 35.2548H126.208C126.208 35.2548 126.478 35.3545 126.478 35.5206V38.7761C126.478 39.4737 127.052 40.0384 127.762 40.0384H129.181C129.181 40.0384 129.451 39.9388 129.451 39.7727V29.6407C129.451 28.5113 129.046 27.5147 128.201 26.7174C127.323 25.9201 126.343 25.4883 125.16 25.4883H125.194ZM126.208 32.7634H111.543C111.543 32.7634 111.273 32.6637 111.273 32.4976V29.2089C111.273 28.8767 111.408 28.5777 111.645 28.3452C111.881 28.1126 112.185 27.9797 112.523 27.9797H125.194C125.532 27.9797 125.836 28.1126 126.106 28.3452C126.377 28.5777 126.478 28.8767 126.478 29.2089V32.4976C126.478 32.4976 126.377 32.7634 126.208 32.7634Z" fill="white"/>
<path fill-rule="evenodd" clip-rule="evenodd" d="M98.1589 25.4883H81.5008C81.5008 25.4883 81.2305 25.5879 81.2305 25.754V39.8059C81.2305 39.8059 81.3318 40.0717 81.5008 40.0717H82.9199C83.6295 40.0717 84.2039 39.5069 84.2039 38.8093V35.5206C84.2039 35.5206 84.3053 35.288 84.4404 35.288H98.1589C99.3077 35.288 100.321 34.8894 101.132 34.0589C101.943 33.2616 102.383 32.2651 102.383 31.1024V29.6407C102.383 28.5113 101.977 27.5147 101.132 26.7174C100.321 25.8869 99.3077 25.4883 98.1589 25.4883ZM99.4091 31.501C99.4091 31.8332 99.2739 32.1322 99.0374 32.3647C98.8009 32.6305 98.4968 32.7301 98.1589 32.7301H84.4742C84.4742 32.7301 84.2039 32.6305 84.2039 32.4644V28.2123C84.2039 28.2123 84.3053 27.9465 84.4742 27.9465H98.1589C98.4968 27.9465 98.8009 28.0794 99.0374 28.3119C99.2739 28.5445 99.4091 28.8435 99.4091 29.1756V31.4678V31.501Z" fill="white"/>
<path fill-rule="evenodd" clip-rule="evenodd" d="M41.5204 16.3782C41.4528 16.1789 41.1825 16.1124 41.0811 16.3118C40.8446 16.6439 40.5743 17.0094 40.2702 17.3748C39.7972 17.9727 39.5944 18.7036 39.6282 19.4344C39.6958 19.9659 39.6958 20.5306 39.6958 21.0954C39.6958 23.5868 39.1889 25.9786 38.2091 28.2376C37.8036 29.2341 37.2967 30.1643 36.7223 31.028C36.3844 31.5595 36.1817 32.1907 36.2493 32.8219C36.2831 33.453 36.2831 34.0842 36.2493 34.6489C36.2493 34.8815 36.5534 35.0143 36.6885 34.815C40.0337 31.2273 42.0272 26.3773 42.0272 21.1286C42.0272 19.5008 41.8245 17.9063 41.4866 16.4114L41.5204 16.3782Z" fill="white"/>
<path fill-rule="evenodd" clip-rule="evenodd" d="M30.5455 22.1963C34.2623 19.5387 37.1006 16.8812 38.5536 14.7883C39.5335 13.3931 39.9389 12.2304 39.601 11.3999C36.087 4.88892 29.0926 0.4375 21.0507 0.4375C19.564 0.4375 18.1448 0.603598 16.7595 0.869354C16.523 0.935793 16.4892 1.23477 16.6919 1.33443C16.7595 1.40087 16.8609 1.40087 16.9284 1.46731C17.3339 1.69984 17.807 1.9656 18.2462 2.26457C18.8206 2.66321 19.4964 2.82931 20.1722 2.79609C20.4763 2.79609 20.7128 2.79609 21.0169 2.79609C23.5511 2.79609 25.984 3.29438 28.2816 4.25774C30.4779 5.18789 32.5053 6.51667 34.2285 8.17765C34.803 8.74238 35.3436 9.34033 35.8166 10.0047C35.9518 10.1708 35.8166 10.4034 35.6139 10.4034C33.9582 10.6027 31.8971 11.1674 29.5656 11.9979C28.7547 12.2969 28.4506 13.2602 28.9236 13.9578C29.025 14.1239 29.0926 14.2568 29.2277 14.3897C29.2953 14.4894 29.4305 14.5558 29.5318 14.4894C29.7008 14.4229 29.8359 14.3565 30.0049 14.3233C33.8907 12.8616 35.9856 12.6291 36.8979 12.6291C36.9655 12.6291 37.0331 12.6955 36.9655 12.7619C36.8303 12.9945 36.6952 13.2602 36.4586 13.5924C35.8166 14.5226 34.7692 15.6188 33.5528 16.7483C32.4039 17.8113 31.0523 18.9076 29.5656 19.9706C29.4305 20.0702 29.2615 20.037 29.1602 19.9041C28.7209 19.0404 28.2478 18.1767 27.7072 17.2798C23.8552 10.6691 19.0909 5.65296 15.239 3.69301C15.1714 3.69301 15.1376 3.62657 15.07 3.62657C15.07 3.62657 14.9687 3.56013 14.9011 3.56013C14.8673 3.56013 14.7659 3.4937 14.7321 3.4937C14.4618 3.39404 14.2253 3.29438 13.955 3.22794C13.955 3.22794 13.8874 3.22794 13.8198 3.22794H13.786H13.7184H13.6509H13.5833C13.5833 3.22794 13.5495 3.22794 13.5157 3.22794C13.5157 3.22794 13.4481 3.22794 13.4143 3.22794C13.4143 3.22794 13.3468 3.22794 13.313 3.22794C13.313 3.22794 13.2454 3.22794 13.2116 3.22794C13.2116 3.22794 13.1778 3.22794 13.144 3.22794C13.144 3.22794 13.0765 3.22794 13.0427 3.22794H12.4007C11.7925 3.22794 11.2518 3.36082 10.745 3.62657C4.22366 6.84887 0 13.4928 0 21.1333C0 25.1528 1.18262 28.9398 3.20998 32.1289C3.37893 32.3947 3.85198 32.9594 4.18987 33.0923C4.62913 33.2916 5.20355 33.358 5.91312 33.358C8.48111 33.358 12.6034 32.1289 17.3677 29.9697C17.4691 29.9364 17.6042 29.9697 17.6718 30.0361C20.5777 33.8896 23.6187 36.7797 26.2881 38.3078C26.4908 38.4074 26.457 38.7064 26.2205 38.7728C24.531 39.2379 22.8078 39.5037 21.0507 39.5037C18.5165 39.5037 16.0837 39.0054 13.786 38.042C12.7386 37.6101 11.7249 37.0786 10.7788 36.4807C10.103 36.0488 9.29205 35.8495 8.48111 35.9824C8.04185 36.0488 7.60259 36.1153 7.23091 36.1817C6.99438 36.1817 6.9268 36.4475 7.06196 36.6136C10.7788 39.8691 15.6782 41.829 21.0169 41.829C25.1392 41.829 28.9236 40.6996 32.1336 38.7064C32.9783 37.8759 33.4176 36.5471 33.4852 34.7865C33.6541 31.6638 32.5729 27.2789 30.4441 22.5285C30.3766 22.4288 30.4441 22.2959 30.5117 22.2295L30.5455 22.1963ZM12.8061 29.3053C8.92037 30.7669 6.82544 30.9995 5.91312 30.9995C5.84555 30.9995 5.77797 30.933 5.84555 30.8666C5.9807 30.634 6.14965 30.3683 6.38617 30.0361C7.02817 29.1059 8.07564 28.0097 9.29205 26.8802C10.4409 25.8172 11.8262 24.6877 13.3468 23.5583C13.4819 23.4586 13.4819 23.2593 13.3468 23.1597C13.0427 22.8607 12.7048 22.6281 12.4007 22.3956C11.9276 22.0634 11.3194 22.1298 10.8801 22.462C7.97427 24.6877 5.77797 26.8138 4.46019 28.6077C4.35882 28.7737 4.0885 28.7405 4.02092 28.6077C3.98714 28.508 3.91956 28.4083 3.85198 28.2755C2.87209 26.0165 2.36525 23.6247 2.36525 21.1333C2.36525 18.6418 2.87209 16.25 3.85198 13.9911C4.79808 11.8318 6.14965 9.83862 7.83911 8.14443C7.90669 8.07799 8.00806 7.97833 8.10943 7.91189C8.27837 7.74579 8.54869 7.91189 8.54869 8.11121C8.54869 10.6691 9.29205 13.9578 10.6774 17.5456C10.745 17.7117 10.9477 17.7449 11.0829 17.6452C11.3532 17.4127 11.6235 17.2134 11.9276 16.9808C12.4345 16.6154 12.6034 15.9842 12.4007 15.4195C11.8262 13.7585 11.4208 12.2304 11.1505 10.8352C10.5423 7.34716 11.1505 5.61975 11.6911 5.28755C11.7587 5.28755 11.86 5.18789 12.1304 5.18789C12.4682 5.18789 13.2116 5.28755 14.428 5.95194C15.5093 6.54989 16.6919 7.4136 17.9421 8.57628C20.6115 11.0677 23.3822 14.589 25.7136 18.5089C26.2543 19.4723 26.7949 20.4356 27.3017 21.399C27.3693 21.4987 27.3017 21.6648 27.2342 21.698C25.8826 22.5949 24.4297 23.5251 22.9767 24.3888C19.4964 26.4484 15.9823 28.1426 12.8061 29.3385V29.3053ZM30.3766 37.0122C30.3766 37.0122 30.2076 37.1118 29.9373 37.1118C29.5994 37.1118 28.856 37.0122 27.6396 36.381C26.5584 35.7831 25.3757 34.9194 24.1255 33.7567C22.7064 32.4611 21.2872 30.8666 19.9357 29.0727C19.8343 28.9398 19.9019 28.7738 20.0033 28.6741C21.3548 27.9765 22.774 27.2124 24.1931 26.3819C25.5785 25.5515 26.8963 24.721 28.1803 23.8905C28.3154 23.824 28.4844 23.8905 28.5519 23.9901C28.7547 24.4552 28.9574 24.9535 29.1264 25.4186C30.0049 27.6111 30.6131 29.6707 30.9172 31.4978C31.5254 34.9858 30.9172 36.7132 30.3766 37.0454V37.0122Z" fill="white"/>
<path fill-rule="evenodd" clip-rule="evenodd" d="M24.0491 19.1372L19.893 18.2071L18.9807 14.1211H18.1022L17.1899 18.2071L13 19.1372V19.9677L17.1899 20.8979L18.1022 24.9839H18.9807L19.893 20.8979L24.0491 19.9677V19.1372Z" fill="white"/>
<path fill-rule="evenodd" clip-rule="evenodd" d="M99.471 14.2618H82.6102C82.6102 14.2618 82.475 14.2286 82.475 14.1289V13.9296C82.475 12.169 83.5901 10.7073 85.4823 10.7073H96.903C99.2345 10.7073 101.194 8.88025 101.194 6.5881V6.32235C101.194 4.0302 99.2683 2.20312 96.9368 2.20312H84.1307C82.3061 2.20312 80.718 3.29937 80.1098 4.89391C80.0422 5.12644 80.2111 5.35898 80.4477 5.35898H82.5764C82.5764 5.35898 82.7453 5.35898 82.7791 5.25932C83.0832 4.89391 83.5563 4.69459 84.1307 4.69459H96.9368C97.9505 4.69459 98.7277 5.45864 98.7277 6.35557V6.62132C98.7277 7.48503 97.9505 8.2823 96.9368 8.2823H85.8877C82.644 8.2823 79.9746 10.807 79.9746 13.9628V15.7567C79.9746 16.3214 80.4139 16.7533 80.9883 16.7533H100.485C100.485 16.7533 100.755 16.6536 100.755 16.4875V15.5242C100.755 14.8265 100.181 14.2618 99.471 14.2618Z" fill="white"/>
<path fill-rule="evenodd" clip-rule="evenodd" d="M65.8995 9.24373L74.7523 2.59982C74.9212 2.46694 74.8536 2.16797 74.6171 2.16797H71.914C71.4071 2.16797 70.9003 2.33407 70.4948 2.63304L63.4329 7.94816C63.1963 8.11426 62.926 8.21392 62.6219 8.21392H57.7563C57.4522 8.21392 57.2156 7.98138 57.2156 7.64919V3.46353C57.2156 2.76592 56.6412 2.20119 55.9317 2.20119H54.5125C54.5125 2.20119 54.2422 2.30085 54.2422 2.46694V16.4856C54.2422 16.4856 54.3436 16.7513 54.5125 16.7513H55.9317C56.6412 16.7513 57.2156 16.1866 57.2156 15.489V11.2701C57.2156 10.9711 57.4522 10.7054 57.7563 10.7054H62.6557C62.9598 10.7054 63.2301 10.805 63.4667 10.9711L70.5286 16.253C70.9341 16.552 71.4409 16.7181 71.9478 16.7181H74.6509C74.8874 16.7181 74.9888 16.4524 74.7861 16.2863L65.9333 9.64236C65.9333 9.64236 65.7981 9.34338 65.9333 9.24373H65.8995Z" fill="white"/>
</svg>
