<svg width="259" height="20" viewBox="0 0 259 20" fill="none" xmlns="http://www.w3.org/2000/svg">
<path fill-rule="evenodd" clip-rule="evenodd" d="M2.86459 3.55903V8.81077H10.0261V11.1979H2.86459V18.8368H0V1.17188H11.9358V3.55903H2.86459Z" fill="white"/>
<path fill-rule="evenodd" clip-rule="evenodd" d="M27.9323 1.17188C29.6033 1.17188 30.3195 1.41059 31.0356 1.88802C31.9905 2.84288 32.7066 4.03646 32.7066 10.0044C32.7066 15.9722 31.9905 17.1658 31.0356 18.1207C30.3195 18.5981 29.842 18.8368 27.9323 18.8368H22.6806C21.0096 18.8368 20.2934 18.5981 19.5773 18.1207C18.6224 17.1658 17.9062 15.9722 17.9062 10.0044C17.9062 4.03646 18.6224 2.84288 19.5773 1.88802C20.2934 1.41059 20.7708 1.17188 22.6806 1.17188H27.9323ZM21.487 16.211C21.7257 16.4497 21.9644 16.4497 22.9193 16.4497H27.6936C28.6484 16.4497 28.8872 16.4497 29.1259 16.211C29.3646 15.9722 29.842 15.2561 29.842 10.0044C29.842 4.99132 29.3646 4.03646 29.1259 3.79775C28.8872 3.55903 28.6484 3.55903 27.6936 3.55903H22.9193C21.9644 3.55903 21.7257 3.55903 21.487 3.79775C21.2483 4.03646 20.7708 4.75261 20.7708 10.0044C21.0096 15.0174 21.2483 15.9722 21.487 16.211Z" fill="white"/>
<path fill-rule="evenodd" clip-rule="evenodd" d="M54.6671 11.4366C54.6671 15.9722 54.1897 16.6884 53.2348 17.6432C52.28 18.3594 51.0864 18.5981 48.6992 18.5981H46.0734C43.6862 18.5981 42.4926 18.3594 41.5378 17.6432C40.5829 16.6884 40.1055 15.7335 40.1055 11.4366V1.17188H42.9701V12.1528C42.9701 15.2561 43.2088 15.7335 43.6862 15.9722C43.9249 16.211 44.4023 16.4497 46.5508 16.4497H48.2218C50.1315 16.4497 50.609 16.4497 51.0864 15.9722C51.5638 15.4948 51.5638 15.4948 51.5638 12.1528V1.17188H54.4284V11.4366H54.6671Z" fill="white"/>
<path fill-rule="evenodd" clip-rule="evenodd" d="M77.582 18.8334H74.4787C73.7626 18.8334 73.5239 18.5946 73.0465 18.1172L65.885 4.98785H65.4076V18.8334H62.543V1.1684H65.885C66.6011 1.1684 66.8398 1.40712 67.3173 1.88455L74.24 14.2978H74.7175V0.929688H77.582V18.8334Z" fill="white"/>
<path fill-rule="evenodd" clip-rule="evenodd" d="M93.8136 1.17188C95.962 1.17188 97.3943 1.41059 98.3492 2.36545C99.5428 3.32031 100.259 5.70747 100.259 10.0044C100.259 14.3012 99.7815 16.4497 98.3492 17.6432C97.3943 18.5981 96.2007 18.8368 93.8136 18.8368H85.6973V1.17188H93.8136ZM95.962 4.03646C95.4846 3.55903 94.7685 3.55903 93.8136 3.55903H88.8006V16.4497H93.8136C95.0072 16.4497 95.4846 16.4497 95.962 15.9722C96.6782 15.2561 96.9169 14.0625 96.9169 10.2431C97.1556 5.94619 96.6782 4.75261 95.962 4.03646Z" fill="white"/>
<path fill-rule="evenodd" clip-rule="evenodd" d="M120.074 18.8368H107.422V1.17188H120.074V3.55903H110.286V8.33334H118.403V10.7205H110.286V16.211H120.074V18.8368Z" fill="white"/>
<path fill-rule="evenodd" clip-rule="evenodd" d="M137.501 11.9097C137.262 11.671 136.546 11.671 135.591 11.671H130.339V19.0712H127.475V1.40625H137.501C138.694 1.40625 139.649 1.64497 140.127 2.1224C140.843 2.83854 141.32 3.79341 141.32 6.41928C141.32 9.52258 140.365 10.4774 138.217 10.7162C140.127 10.9549 140.843 11.4323 141.081 14.0582C141.081 16.4453 141.32 18.1163 141.32 19.0712H138.456C138.217 17.8776 138.217 16.2066 138.217 14.2969C137.978 12.6259 137.739 12.1484 137.501 11.9097ZM136.546 9.28386C137.262 9.28386 137.501 9.04515 137.739 9.04515C137.978 8.80643 138.217 8.329 138.217 6.41928C138.217 4.50955 137.978 4.03212 137.739 3.79341C137.501 3.55469 137.262 3.55469 136.546 3.55469H130.339V9.28386H136.546Z" fill="white"/>
<path fill-rule="evenodd" clip-rule="evenodd" d="M161.363 18.1163C160.886 18.5938 159.931 18.8325 158.499 18.8325H152.292C150.86 18.8325 149.905 18.5938 149.428 18.1163C148.711 17.4002 148.473 16.4453 148.473 13.342H151.337C151.337 15.4905 151.576 15.9679 151.576 16.2066C151.815 16.4453 152.053 16.4453 152.77 16.4453H158.021C158.737 16.4453 158.976 16.4453 159.215 16.2066C159.454 15.9679 159.454 15.2517 159.454 13.8195C159.454 12.6259 159.454 12.1484 159.215 11.9097C158.976 11.671 158.737 11.671 158.021 11.671L152.292 11.1936C150.86 10.9549 150.144 10.7162 149.666 10.2387C148.95 9.52258 148.711 8.80643 148.711 6.41928C148.711 4.03212 148.95 3.07726 149.905 2.1224C150.382 1.64497 151.337 1.40625 152.77 1.40625H158.499C159.931 1.40625 160.886 1.64497 161.363 2.1224C162.079 2.83854 162.318 3.55469 162.318 6.89671H159.454C159.454 4.74827 159.215 4.27084 159.215 4.27084C158.976 4.03212 158.737 4.03212 158.021 4.03212H153.247C152.531 4.03212 152.292 4.03212 152.053 4.27084C151.815 4.50955 151.815 5.2257 151.815 6.65799C151.815 7.85157 151.815 8.329 152.053 8.56772C152.292 8.80643 152.531 8.80643 153.247 8.80643L158.976 9.28386C160.17 9.28386 161.125 9.52258 161.602 10.2387C162.318 10.9549 162.557 11.671 162.557 14.2969C162.557 16.2066 162.318 17.1615 161.363 18.1163Z" fill="white"/>
<path fill-rule="evenodd" clip-rule="evenodd" d="M182.626 3.55903V8.81077H189.788V11.1979H182.626V18.8368H179.762V1.17188H191.697V3.55903H182.626Z" fill="white"/>
<path fill-rule="evenodd" clip-rule="evenodd" d="M212.929 11.4366C212.929 15.9722 212.451 16.6884 211.497 17.6432C210.542 18.3594 209.348 18.5981 206.961 18.5981H204.335C201.948 18.5981 200.754 18.3594 199.799 17.6432C198.845 16.6884 198.367 15.7335 198.367 11.4366V1.17188H201.232V12.1528C201.232 15.2561 201.47 15.7335 201.948 15.9722C202.187 16.211 202.664 16.4497 204.812 16.4497H206.484C208.393 16.4497 208.871 16.4497 209.348 15.9722C209.826 15.4948 209.826 15.4948 209.826 12.1528V1.17188H212.69V11.4366H212.929Z" fill="white"/>
<path fill-rule="evenodd" clip-rule="evenodd" d="M235.859 18.8334H232.756C232.04 18.8334 231.801 18.5946 231.324 18.1172L224.162 4.98785H223.685V18.8334H220.82V1.1684H224.162C224.878 1.1684 225.117 1.40712 225.595 1.88455L232.517 14.2978H232.995V0.929688H235.859V18.8334Z" fill="white"/>
<path fill-rule="evenodd" clip-rule="evenodd" d="M252.087 1.17188C254.235 1.17188 255.668 1.41059 256.623 2.36545C257.816 3.32031 258.532 5.70747 258.532 10.0044C258.532 14.3012 258.055 16.4497 256.623 17.6432C255.668 18.5981 254.474 18.8368 252.087 18.8368H243.971V1.17188H252.087ZM254.235 4.03646C253.758 3.55903 253.042 3.55903 252.087 3.55903H247.074V16.4497H252.087C253.281 16.4497 253.758 16.4497 254.235 15.9722C254.952 15.2561 255.19 14.0625 255.19 10.2431C255.19 5.94619 254.952 4.75261 254.235 4.03646Z" fill="white"/>
</svg>
