<svg width="124" height="51" viewBox="0 0 124 51" fill="none" xmlns="http://www.w3.org/2000/svg">
<path d="M106.065 42.6078L124 20.7675V13.3843H96.3372V20.7675H114.272L96.3372 42.6078V49.991H124V42.6078H106.065ZM30.5168 15.6877C27.3241 13.3782 23.5263 11.9961 19.2672 11.9961C7.86787 11.9961 -1.10546 21.8404 0.110549 33.685C1.02106 42.7594 8.31713 49.991 17.2905 50.9124C22.3043 51.3731 26.8688 49.991 30.5168 47.3724V50.1426H38.5737V13.2267H30.5168V15.6877ZM30.5168 31.5331C30.5168 38.6071 24.1313 44.1475 16.8352 42.6078C12.5762 41.6865 9.08388 38.298 8.32312 33.8426C6.80161 26.4594 12.2767 19.9976 19.2672 19.9976C25.497 19.9976 30.5168 25.0713 30.5168 31.3815V31.5331ZM76.1203 13.6874H74.1435L84.6324 0H75.054L60.1564 20.1492C57.1134 24.1499 55.5978 28.4537 55.7476 32.7636C55.8973 37.8373 58.0299 42.4563 61.5221 45.8387C65.0204 49.0696 69.579 50.9124 74.443 50.9124H75.054C85.5429 50.6033 93.5997 42.1472 93.45 31.6846C92.9947 22.1495 85.5429 14.2996 76.1203 13.6874ZM74.9043 43.5292C72.017 43.6808 69.4292 42.6078 67.4584 40.759C65.3319 38.7586 64.1159 35.8369 63.9602 32.7575C63.8104 29.5266 64.8707 26.6049 66.8474 24.453C68.6744 22.4526 71.2562 21.2221 73.9938 21.2221H74.449C77.0308 21.2221 79.6186 22.1435 81.4396 23.9923C83.5661 25.9927 84.9379 28.9144 84.9379 31.9938C85.3931 38.1464 80.9843 43.3777 74.9043 43.5292ZM38.7234 7.38318H43.893V49.991H51.9498V0H38.5737C38.7234 0 38.7234 7.38318 38.7234 7.38318Z" fill="white"/>
</svg>
