<svg width="302" height="299" viewBox="0 0 302 299" fill="none" xmlns="http://www.w3.org/2000/svg">
<path d="M30.2908 61.5312L19.8808 66.5278L29.4129 73.0448L30.2908 61.5312ZM150.138 296.229C68.8131 296.229 2.88477 230.257 2.88477 148.875H0.884766C0.884766 231.36 67.7073 298.229 150.138 298.229V296.229ZM240.973 264.862C215.951 284.512 184.414 296.229 150.138 296.229V298.229C184.877 298.229 216.847 286.352 242.208 266.435L240.973 264.862ZM2.88477 148.875C2.88477 119.648 11.3873 92.411 26.0518 69.5023L24.3674 68.424C9.50293 91.6451 0.884766 119.255 0.884766 148.875H2.88477Z" fill="#D9D9D9"/>
<path d="M271.662 236.699L282.076 231.711L272.549 225.186L271.662 236.699ZM151.614 2.00162C233.077 2.00163 299.115 67.9749 299.115 149.355L301.115 149.355C301.115 66.8685 234.18 0.00162693 151.614 0.00161971L151.614 2.00162ZM60.6253 33.3694C85.6895 13.7189 117.28 2.00162 151.614 2.00162L151.614 0.00161971C116.817 0.00161667 84.7952 11.8786 59.3913 31.7954L60.6253 33.3694ZM299.115 149.355C299.115 178.585 290.597 205.825 275.905 228.735L277.588 229.815C292.481 206.592 301.115 178.979 301.115 149.355L299.115 149.355Z" fill="#D9D9D9"/>
</svg>
