<svg width="163" height="37" viewBox="0 0 163 37" fill="none" xmlns="http://www.w3.org/2000/svg">
<path d="M0.41818 37L15.2382 0.599995H22.3622L37.2342 37H29.7982L26.4702 28.732H11.1822L7.85418 37H0.41818ZM13.7822 22.44H23.8702L18.8262 9.96L13.7822 22.44ZM41.3109 37V0.599995H48.4869V30.552H66.6349V37H41.3109ZM75.1584 37V6.996H63.2504V0.599995H94.2424V6.996H82.3344V37H75.1584ZM98.9984 37V0.599995H124.79V6.996H106.122V15.316H123.178V21.608H106.122V30.552H125.258V37H98.9984ZM130.483 37V0.599995H148.943C151.196 0.599995 153.207 1.03333 154.975 1.9C156.777 2.76666 158.181 3.99733 159.187 5.592C160.192 7.18666 160.695 8.98933 160.695 11C160.695 13.288 159.915 15.2987 158.355 17.032C156.829 18.7307 154.801 19.8747 152.271 20.464C153.588 20.672 154.715 21.1573 155.651 21.92C156.621 22.6827 157.332 23.6707 157.783 24.884L162.359 37H154.715L150.711 26.08C150.468 25.3867 150.052 24.8493 149.463 24.468C148.873 24.0867 148.18 23.896 147.383 23.896H137.659V37H130.483ZM148.371 17.656C149.48 17.656 150.416 17.4133 151.179 16.928C151.976 16.408 152.583 15.7493 152.999 14.952C153.415 14.12 153.623 13.2187 153.623 12.248C153.623 10.7573 153.155 9.50933 152.219 8.504C151.283 7.49866 150 6.996 148.371 6.996H137.659V17.656H148.371Z" fill="white"/>
</svg>
