<svg width="175" height="43" viewBox="0 0 175 43" fill="none" xmlns="http://www.w3.org/2000/svg">
<path d="M18.9072 11.2042H24.4184V21.6344L21.6406 24.4925L18.8628 21.6801C18.5102 17.1436 15.6005 14.831 12.5588 14.831C9.47284 14.831 6.96016 17.2349 6.56445 21.6344H1.09766C1.49337 15.0594 6.21053 10.75 11.5885 10.75C14.6171 10.75 17.2003 12.0266 18.9072 14.3203V11.2028V11.2042ZM18.9072 25.5366H18.3783C17.4079 28.6676 15.1159 30.2989 12.6033 30.2989C9.86986 30.2989 7.62098 28.7133 6.78385 25.1281L3.96295 22.6341L1.27266 25.5366C2.1999 30.9788 6.87266 34.3812 11.5898 34.3812C14.6288 34.3812 17.2003 33.0576 18.9072 30.7463V33.9283H24.4184V25.5366H18.9072ZM49.6758 22.7242V24.0854H32.8615C33.4061 27.8102 35.9227 30.3902 39.2307 30.3902C41.5671 30.3902 43.5064 29.2104 44.7419 26.8522H49.4577C47.871 31.4787 43.8159 34.3825 38.8337 34.3825C32.2646 34.3825 27.2837 29.2561 27.2837 22.5441C27.2824 15.9194 32.0883 10.75 38.6116 10.75C45.4889 10.75 49.6758 16.2836 49.6758 22.7242ZM32.9764 20.2302H44.8215C44.2299 16.8358 41.84 14.6966 38.7919 14.6966C35.7881 14.6966 33.6477 16.9272 32.9764 20.2302ZM57.5691 17.2363C57.5691 15.785 58.9365 14.4682 61.7574 14.4682C65.2391 14.4682 66.959 16.1022 67.2685 18.6418H71.8081C71.4542 13.5625 67.2228 10.75 61.8004 10.75C56.51 10.75 52.3661 13.8339 52.3661 18.2347C52.3661 27.5778 66.737 22.8155 66.737 27.8506C66.737 29.2561 65.1947 30.663 62.0199 30.663C58.7588 30.663 56.7738 28.8933 56.51 26.4893H51.9691C52.2773 31.5244 56.5531 34.3812 62.2406 34.3812C67.7518 34.3812 72.0275 31.2973 72.0275 26.8522C72.0275 17.5077 57.5691 22.2256 57.5691 17.2363ZM85.782 14.8323C88.9124 14.8323 91.2044 16.7377 91.954 20.1401H96.76C95.8314 14.3324 91.2462 10.75 85.3837 10.75C78.684 10.75 73.9225 15.8294 73.9225 22.5884C73.9225 29.3475 78.8159 34.3825 85.5613 34.3825C91.2031 34.3825 95.7439 30.5717 96.6699 24.9924H91.9527C91.2031 28.3034 88.9111 30.2545 85.7807 30.2545C82.0339 30.2545 79.4337 27.0336 79.4337 22.5427C79.4337 17.9619 82.0352 14.8323 85.782 14.8323ZM116.464 11.2042H121.976V33.927H116.464V30.7074C114.714 33.0898 112.122 34.3825 109.147 34.3825C103.153 34.3825 98.6105 29.2561 98.6105 22.5441C98.6105 15.8751 103.194 10.75 109.235 10.75C112.173 10.75 114.733 12.0158 116.464 14.366V11.2042ZM116.464 22.5427C116.464 17.9162 113.864 14.8323 110.292 14.8323C106.722 14.8323 104.122 17.9162 104.122 22.5427C104.122 27.215 106.722 30.3002 110.292 30.3002C113.864 30.3002 116.464 27.215 116.464 22.5427ZM149.307 22.5427C149.307 29.2561 144.722 34.3812 138.683 34.3812C135.744 34.3812 133.185 33.1006 131.453 30.7396V43H125.942V11.2042H131.453V14.3983C133.2 12.0293 135.795 10.75 138.769 10.75C144.765 10.75 149.307 15.8751 149.307 22.5427ZM143.796 22.5427C143.796 17.9162 141.196 14.8323 137.625 14.8323C134.055 14.8323 131.453 17.9162 131.453 22.5427C131.453 27.215 134.055 30.3002 137.625 30.3002C141.196 30.3002 143.796 27.215 143.796 22.5427ZM173.905 24.0854H157.088C157.634 27.8102 160.149 30.3902 163.457 30.3902C165.794 30.3902 167.734 29.2104 168.968 26.8522H173.686C172.097 31.4787 168.042 34.3825 163.06 34.3825C156.492 34.3825 151.511 29.2561 151.511 22.5441C151.511 15.9208 156.316 10.75 162.841 10.75C169.718 10.75 173.905 16.2836 173.905 22.7242V24.0854ZM157.203 20.2288H169.047C168.456 16.8358 166.068 14.6966 163.018 14.6966C160.016 14.6966 157.875 16.9272 157.203 20.2302V20.2288Z" fill="white"/>
</svg>
