<svg width="72" height="13" viewBox="0 0 72 13" fill="none" xmlns="http://www.w3.org/2000/svg">
<path d="M0.156 10L3.576 1.6H5.22L8.652 10H6.936L6.168 8.092H2.64L1.872 10H0.156ZM3.24 6.64H5.568L4.404 3.76L3.24 6.64ZM12.1915 10.192C11.5115 10.192 10.9195 10.048 10.4155 9.76C9.91153 9.464 9.52353 9.056 9.25153 8.536C8.98753 8.016 8.85553 7.428 8.85553 6.772C8.85553 6.1 8.99553 5.512 9.27553 5.008C9.56353 4.496 9.95553 4.108 10.4515 3.844C10.9555 3.572 11.5275 3.436 12.1675 3.436C12.7515 3.436 13.2715 3.552 13.7275 3.784C14.1915 4.008 14.5555 4.324 14.8195 4.732C15.0835 5.132 15.2275 5.588 15.2515 6.1H13.6555C13.5995 5.708 13.4355 5.396 13.1635 5.164C12.8915 4.924 12.5555 4.804 12.1555 4.804C11.8275 4.804 11.5355 4.884 11.2795 5.044C11.0315 5.204 10.8395 5.432 10.7035 5.728C10.5675 6.024 10.4995 6.372 10.4995 6.772C10.4995 7.188 10.5715 7.552 10.7155 7.864C10.8595 8.168 11.0595 8.404 11.3155 8.572C11.5715 8.732 11.8635 8.812 12.1915 8.812C12.5835 8.812 12.9075 8.696 13.1635 8.464C13.4275 8.224 13.5915 7.9 13.6555 7.492H15.2515C15.2035 8.036 15.0435 8.512 14.7715 8.92C14.5075 9.328 14.1515 9.644 13.7035 9.868C13.2635 10.084 12.7595 10.192 12.1915 10.192ZM20.8302 9.244C20.6302 9.54 20.3622 9.772 20.0262 9.94C19.6982 10.108 19.3182 10.192 18.8862 10.192C18.3182 10.192 17.8062 10.048 17.3502 9.76C16.9022 9.472 16.5502 9.072 16.2942 8.56C16.0382 8.04 15.9102 7.448 15.9102 6.784C15.9102 6.128 16.0342 5.548 16.2822 5.044C16.5302 4.532 16.8742 4.136 17.3142 3.856C17.7622 3.576 18.2662 3.436 18.8262 3.436C19.3142 3.436 19.7502 3.544 20.1342 3.76C20.5262 3.968 20.8182 4.252 21.0102 4.612L21.1542 3.64H22.4742V12.4H20.8302V9.244ZM19.1982 8.848C19.5182 8.848 19.8022 8.76 20.0502 8.584C20.2982 8.408 20.4902 8.164 20.6262 7.852C20.7622 7.54 20.8302 7.18 20.8302 6.772C20.8302 6.388 20.7622 6.048 20.6262 5.752C20.4902 5.448 20.2982 5.212 20.0502 5.044C19.8102 4.876 19.5302 4.792 19.2102 4.792C18.8902 4.792 18.6062 4.876 18.3582 5.044C18.1102 5.212 17.9142 5.448 17.7702 5.752C17.6342 6.056 17.5662 6.404 17.5662 6.796C17.5662 7.196 17.6342 7.552 17.7702 7.864C17.9142 8.168 18.1062 8.408 18.3462 8.584C18.5942 8.76 18.8782 8.848 19.1982 8.848ZM26.0725 10.192C25.5845 10.192 25.1605 10.096 24.8005 9.904C24.4485 9.704 24.1765 9.428 23.9845 9.076C23.8005 8.724 23.7085 8.312 23.7085 7.84V3.64H25.3405V7.756C25.3405 8.076 25.4405 8.328 25.6405 8.512C25.8485 8.688 26.1245 8.776 26.4685 8.776C26.8845 8.776 27.2205 8.656 27.4765 8.416C27.7405 8.168 27.8725 7.852 27.8725 7.468V3.64H29.5045V10H28.1965L28.0645 9.1C27.8885 9.436 27.6205 9.704 27.2605 9.904C26.9085 10.096 26.5125 10.192 26.0725 10.192ZM30.8241 10V3.64H32.4681V10H30.8241ZM31.6521 2.896C31.3721 2.896 31.1321 2.8 30.9321 2.608C30.7401 2.408 30.6441 2.164 30.6441 1.876C30.6441 1.596 30.7401 1.364 30.9321 1.18C31.1321 0.987999 31.3721 0.891999 31.6521 0.891999C31.9321 0.891999 32.1681 0.987999 32.3601 1.18C32.5521 1.364 32.6481 1.596 32.6481 1.876C32.6481 2.164 32.5521 2.408 32.3601 2.608C32.1681 2.8 31.9321 2.896 31.6521 2.896ZM33.7889 10V3.64H35.1089L35.3129 4.912C35.5209 4.472 35.8089 4.136 36.1769 3.904C36.5449 3.672 36.9889 3.556 37.5089 3.556H37.7729V5.14H37.5089C36.8529 5.14 36.3409 5.3 35.9729 5.62C35.6129 5.94 35.4329 6.388 35.4329 6.964V10H33.7889ZM41.465 10.192C40.809 10.192 40.229 10.052 39.725 9.772C39.221 9.484 38.829 9.088 38.549 8.584C38.269 8.072 38.129 7.492 38.129 6.844C38.129 6.172 38.265 5.576 38.537 5.056C38.817 4.536 39.201 4.136 39.689 3.856C40.177 3.576 40.729 3.436 41.345 3.436C41.953 3.436 42.485 3.572 42.941 3.844C43.405 4.116 43.769 4.508 44.033 5.02C44.305 5.524 44.445 6.116 44.453 6.796V7.18H39.737C39.793 7.676 39.977 8.076 40.289 8.38C40.609 8.684 41.005 8.836 41.477 8.836C41.813 8.836 42.097 8.764 42.329 8.62C42.569 8.468 42.741 8.252 42.845 7.972H44.429C44.261 8.676 43.913 9.224 43.385 9.616C42.865 10 42.225 10.192 41.465 10.192ZM42.773 6.088C42.685 5.68 42.517 5.364 42.269 5.14C42.021 4.916 41.713 4.804 41.345 4.804C40.969 4.804 40.645 4.92 40.373 5.152C40.109 5.376 39.921 5.688 39.809 6.088H42.773ZM48.0893 10.192C47.5213 10.192 47.0093 10.048 46.5533 9.76C46.1053 9.472 45.7533 9.072 45.4973 8.56C45.2413 8.04 45.1133 7.448 45.1133 6.784C45.1133 6.128 45.2373 5.548 45.4853 5.044C45.7333 4.532 46.0773 4.136 46.5173 3.856C46.9653 3.576 47.4693 3.436 48.0293 3.436C48.4533 3.436 48.8373 3.516 49.1813 3.676C49.5333 3.828 49.8173 4.048 50.0333 4.336V0.999999H51.6773V10H50.3573L50.2133 8.932C50.0373 9.324 49.7653 9.632 49.3973 9.856C49.0293 10.08 48.5933 10.192 48.0893 10.192ZM48.4013 8.848C48.7213 8.848 49.0053 8.76 49.2533 8.584C49.5013 8.408 49.6933 8.164 49.8293 7.852C49.9653 7.54 50.0333 7.18 50.0333 6.772C50.0333 6.388 49.9653 6.048 49.8293 5.752C49.6933 5.448 49.5013 5.212 49.2533 5.044C49.0133 4.876 48.7333 4.792 48.4133 4.792C48.0933 4.792 47.8093 4.876 47.5613 5.044C47.3133 5.212 47.1173 5.448 46.9733 5.752C46.8373 6.056 46.7693 6.404 46.7693 6.796C46.7693 7.196 46.8373 7.552 46.9733 7.864C47.1173 8.168 47.3093 8.408 47.5493 8.584C47.7973 8.76 48.0813 8.848 48.4013 8.848ZM59.2701 10.192C58.7661 10.192 58.3181 10.08 57.9261 9.856C57.5341 9.624 57.2461 9.308 57.0621 8.908L56.9061 10H55.5981V0.999999H57.2301V4.384C57.4541 4.088 57.7421 3.856 58.0941 3.688C58.4541 3.52 58.8501 3.436 59.2821 3.436C59.8341 3.436 60.3301 3.576 60.7701 3.856C61.2101 4.136 61.5501 4.532 61.7901 5.044C62.0381 5.548 62.1621 6.128 62.1621 6.784C62.1621 7.44 62.0381 8.028 61.7901 8.548C61.5421 9.068 61.1981 9.472 60.7581 9.76C60.3181 10.048 59.8221 10.192 59.2701 10.192ZM58.8741 8.836C59.1941 8.836 59.4741 8.752 59.7141 8.584C59.9621 8.408 60.1541 8.164 60.2901 7.852C60.4261 7.54 60.4941 7.188 60.4941 6.796C60.4941 6.404 60.4261 6.056 60.2901 5.752C60.1541 5.448 59.9621 5.212 59.7141 5.044C59.4741 4.876 59.1941 4.792 58.8741 4.792C58.5541 4.792 58.2701 4.876 58.0221 5.044C57.7741 5.212 57.5781 5.444 57.4341 5.74C57.2981 6.036 57.2301 6.376 57.2301 6.76C57.2301 7.168 57.2981 7.528 57.4341 7.84C57.5781 8.152 57.7741 8.396 58.0221 8.572C58.2701 8.748 58.5541 8.836 58.8741 8.836ZM62.8151 12.4V11.02H64.0271C64.2671 11.02 64.4591 10.976 64.6031 10.888C64.7471 10.808 64.8511 10.688 64.9151 10.528L65.1071 10H64.8431L62.3231 3.64H64.0751L65.7791 8.188L67.4591 3.64H69.1511L66.4271 10.972C66.3071 11.292 66.1431 11.556 65.9351 11.764C65.7351 11.972 65.4751 12.128 65.1551 12.232C64.8431 12.344 64.4671 12.4 64.0271 12.4H62.8151ZM70.6495 10.168C70.3615 10.168 70.1215 10.072 69.9295 9.88C69.7375 9.688 69.6415 9.452 69.6415 9.172C69.6415 8.884 69.7375 8.644 69.9295 8.452C70.1215 8.26 70.3615 8.164 70.6495 8.164C70.9375 8.164 71.1775 8.26 71.3695 8.452C71.5615 8.644 71.6575 8.884 71.6575 9.172C71.6575 9.452 71.5615 9.688 71.3695 9.88C71.1775 10.072 70.9375 10.168 70.6495 10.168ZM70.6495 5.428C70.3615 5.428 70.1215 5.332 69.9295 5.14C69.7375 4.948 69.6415 4.712 69.6415 4.432C69.6415 4.144 69.7375 3.904 69.9295 3.712C70.1215 3.52 70.3615 3.424 70.6495 3.424C70.9375 3.424 71.1775 3.52 71.3695 3.712C71.5615 3.904 71.6575 4.144 71.6575 4.432C71.6575 4.712 71.5615 4.948 71.3695 5.14C71.1775 5.332 70.9375 5.428 70.6495 5.428Z" fill="white"/>
</svg>
